<svg xmlns="http://www.w3.org/2000/svg" xmlns:xlink="http://www.w3.org/1999/xlink" version="1.0" width="900" height="600" viewBox="-63 -42 126 84">
	<path fill="#fff" d="M-63-42H63v84H-63z"/>
	<path d="m-21-32-4.704-10H-11l32 32 32-32h10v10L31 0l32 32v10H53L21 10l-32 32h-12.72L-21 32 11 0" fill="#002868"/>
	<path d="m-7-42 28 28 28-28H-7zm70 14L35 0l28 28v-56zM49 42 21 14-7 42h56zm-84 0v-84L7 0z" fill="#bf0a30"/>
	<path fill="#002868" d="M-63-42h42v84h-42z"/>
	<g transform="translate(21) scale(5.5)" id="c" fill="#fff">
		<g id="b">
			<path transform="rotate(18 3.157 -.5)" id="a" d="M0 1h.5L0 0z"/>
			<use transform="scale(-1 1)" width="84" height="84" xlink:href="#a"/>
		</g>
		<use transform="rotate(72)" width="84" height="84" xlink:href="#b"/>
		<use transform="rotate(-72)" width="84" height="84" xlink:href="#b"/>
		<use transform="rotate(144)" width="84" height="84" xlink:href="#b"/>
		<use transform="rotate(-144)" width="84" height="84" xlink:href="#b"/>
	</g>
	<g transform="translate(.476)" id="d">
		<use transform="translate(11 11)" width="84" height="84" xlink:href="#c"/>
		<use transform="translate(22 22)" width="84" height="84" xlink:href="#c"/>
		<use transform="translate(33 33)" width="84" height="84" xlink:href="#c"/>
		<use transform="translate(11 -11)" width="84" height="84" xlink:href="#c"/>
		<use transform="translate(22 -22)" width="84" height="84" xlink:href="#c"/>
		<use transform="translate(33 -33)" width="84" height="84" xlink:href="#c"/>
	</g>
	<use transform="matrix(-1 0 0 1 42.756 0)" width="84" height="84" xlink:href="#d"/>
	<ellipse cx="303.375" cy="371.197" rx="146.632" ry="146.491" transform="matrix(0 -.11881 .11893 0 -86.006 36.045)" fill="#fff" stroke="#002868" stroke-width="1.311" stroke-miterlimit="3.864"/>
	<ellipse cx="303.232" cy="371.197" rx="132.037" ry="131.911" transform="matrix(0 -.11881 .11893 0 -86.006 36.045)" fill="none" stroke="#002868" stroke-width="1.18" stroke-miterlimit="3.864"/>
	<path d="M-58.86.017c0-9.389 7.61-17 17-17s17 7.611 17 17c0 9.39-7.61 17-17 17s-17-7.61-17-17zm0 0c0-9.389 7.61-17 17-17s17 7.611 17 17c0 9.39-7.61 17-17 17s-17-7.61-17-17zm.913 0c0-8.884 7.202-16.087 16.087-16.087S-25.773-8.868-25.773.017c0 8.884-7.202 16.087-16.087 16.087S-57.947 8.9-57.947.017z" fill="none" stroke="#002868" stroke-width=".12" stroke-miterlimit="3.864"/>
	<path fill="#002868" d="m-25.71 1.473.699-.731.119-.179.009-1.156-.12.195-.664.834-.05.068-.06.102-.086 1.054zm.026-2.1.35-.52.263-.365.102-.204-.127-1.08-.094.136-.553.91-.102.187.06 1.072zm-.196 3.24.52-.493.298-.281.093-.102-.153 1.122-.17.162-.766.63-.179.178.204-1.08zm-.485 2.1.409-.297.51-.366.103-.11-.298 1.14-.358.203-.596.375-.153.101-.127.103.332-.978zm-.783 2.025.97-.494.162-.11-.4.978-.117.093-1.075.502-.144.102.45-.978zm-1.019 1.898 1.045-.378.16-.081-.548.976-.185.078-1.045.292-.185.068.57-.827zm-1.279 1.741 1.085-.23.204-.067-.702.871-.102.056-1.15.178-.212.068.66-.774zm-1.494 1.573 1.119-.097.195-.042-.799.777-.237.043-.998.004-.255.03.749-.647zm5.035-14.758.485-.906.098-.23-.302-1.127-.098.294-.383.859-.085.272.204 1.024zm-.519-2.076.357-.99.068-.239-.46-1.075-.025.2-.302 1.13-.017.184.336 1.011zm-.801-2.024.247-1.033.03-.204-.579-1.016-.025.212-.154 1.097v.234l.452.897zm-1.038-1.858.068-1.059.004-.259-.749-.948.064.238-.009 1.054.047.302.6.885zm-1.29-1.696-.064-1.085-.034-.242-.847-.834.077.222.136 1.13.06.183.732.821zm-1.519-1.586-.192-1.05-.098-.26-.877-.634.068.217.26.97.09.28.842.706zm-1.682-1.297-.361-1.046-.103-.217-.974-.54.085.17.379.952.144.243.916.603zm-1.911-1.17-.455-.935-.124-.2-1.072-.4.144.158.545.96.183.2.932.443zm-1.953-.774-.618-.927-.196-.183-1.008-.229.093.115.694.914.15.132 1.042.319zm-2.09-.578-.737-.804-.238-.182-1.098-.094.157.102.822.8.2.135 1.055.196zm-2.188-.281-.813-.714-.209-.115-1.14.034.165.077.869.659.242.132 1.06.03zm-2.192-.008-.826-.561-.264-.115-1.085.191.204.09.885.514.226.106 1.068-.106zm-2.167.293-.94-.438-.235-.063-1.047.336.209.042.953.387.32.072 1.021-.25zm-2.055.608-.967-.318-.26-.056-1.013.485.154.021 1.098.264.255.021 1-.378zm-1.937.872-1.043-.187-.251-.034-.945.612.242.009 1.026.136.226-.022.996-.527zm-1.848 1.114-1.08-.064-.252.022-.864.748.183-.03 1.107-.025.23-.056.902-.646zm-3.065 1.521c.021-.008.23-.068.23-.068l1.107-.11.242-.043-.83.761-.195.042-.98.154-.25.067s.655-.795.676-.803z"/>
	<path fill="#002868" fill-rule="evenodd" d="m-55.424-10.11 1.137-.238.162-.06-.647.826-.158.085-1.034.29-.26.105.656-.935-.005.013zm-1.213 1.893 1.043-.379.217-.123-.523.889-.192.144-1 .46-.213.131.498-1.046v.009z"/>
	<path fill="#002868" d="m-57.552-6.206.911-.472.209-.128-.4.957-.145.128-.966.6-.166.122.378-1.1z"/>
	<path fill="#002868" fill-rule="evenodd" d="m-58.271-4.025.864-.625.209-.2-.294 1.05-.115.133-.877.74-.166.165.226-1.093v.009z"/>
	<path fill="#002868" d="m-58.646-1.822.784-.727.148-.196-.144 1.076-.124.166-.706.761-.162.213.068-1.14zm-.127 2.279.69-.816.14-.192v1l-.085.195-.63.897-.12.209-.085-1.157z"/>
	<path fill="#002868" fill-rule="evenodd" d="m-58.535 2.68.536-.87.115-.252.15 1.05-.077.21-.494.93-.098.213-.226-1.068.005.009z"/>
	<path fill="#002868" d="m-58.037 4.875.438-.961.064-.213.29 1.034-.051.161-.366 1.025-.056.217-.374-1.101zm.787 2.181.294-1.093.026-.25.45 1.033-.029.196-.23 1.02-.038.264-.473-.961zm1.069 1.948.166-1.042.004-.298.51.88.04.217-.082 1.127.005.234-.622-.914z"/>
	<path fill="#002868" fill-rule="evenodd" d="m-54.849 9.689-.008 1.092.03.238.757.834-.03-.217-.05-.995-.056-.319-.677-.838.004.009z"/>
	<path fill="#002868" d="m-53.432 11.351.14 1.067.026.209.882.748-.073-.293-.166-.88-.119-.32-.766-.769zm1.601 1.399.294 1.08.089.23.962.612-.115-.23-.32-.94-.131-.267-.894-.676zm1.788 1.216.438 1.072.085.153 1.009.472-.12-.234-.425-.884-.136-.218-.937-.505zm1.932.94.587 1.033.132.158 1.047.318-.132-.17-.561-.833-.209-.23-1.034-.408zm2.081.727.686.927.132.132 1.094.174-.145-.14-.69-.778-.234-.2-1-.238.009.008zm2.07.412.8.787.233.149 1.06.03-.132-.107-.791-.684-.209-.162-1.179-.144zm2.208.162.856.655.23.128 1.055-.124-.136-.08-.881-.6-.277-.115-1.094.03zm2.142-.17.974.561.191.073 1.069-.26-.145-.076-.996-.451-.238-.085-1.107.174zm2.14-.43.996.413.256.06 1-.4-.217-.077-.962-.314-.281-.047-1.009.302-.004.008zm2.048-.722 1.034.26.25.024.98-.535-.192-.026-1.042-.182-.328-.013-.92.446h-.008zm1.877-1 1.064.136.238.009.8-.578.11-.098-.16.013-1.048-.069-.26.005-.953.6.004.008z"/>
	<path d="M-35.397-10.086a.294.294 0 1 1 .481.338.294.294 0 0 1-.481-.338zm-.991-.566a.294.294 0 1 1 .514.285.294.294 0 0 1-.514-.285zm-1.04-.47a.294.294 0 1 1 .54.23.294.294 0 0 1-.54-.23zm-1.079-.372a.294.294 0 1 1 .56.182.294.294 0 0 1-.56-.182zm-1.11-.263a.294.294 0 1 1 .574.123.294.294 0 0 1-.574-.123zm-1.131-.156a.294.294 0 1 1 .584.062.294.294 0 0 1-.584-.062zm-1.139-.059a.294.294 0 1 1 .586.02.294.294 0 0 1-.586-.02zm-1.14.059a.294.294 0 1 1 .586-.04.294.294 0 0 1-.586.04zm-1.129.166a.294.294 0 1 1 .578-.101.294.294 0 0 1-.578.101zm-1.109.269a.293.293 0 1 1 .567-.151.293.293 0 0 1-.567.151zm-1.077.379a.293.293 0 1 1 .548-.21.293.293 0 0 1-.548.21zm-1.035.479a.293.293 0 1 1 .523-.266.293.293 0 0 1-.523.267zm-.987.572a.293.293 0 1 1 .497-.31.293.293 0 0 1-.497.31zm-.926.668a.293.293 0 1 1 .463-.362.293.293 0 0 1-.462.361zm-.86.746a.293.293 0 1 1 .428-.4.293.293 0 0 1-.429.4zm-.791.823a.293.293 0 1 1 .4-.43.293.293 0 0 1-.4.43zm-.702.9a.293.293 0 1 1 .353-.47.293.293 0 0 1-.353.47zm-.617.959a.293.293 0 1 1 .31-.498.293.293 0 0 1-.31.498zm-.518 1.016a.293.293 0 1 1 .257-.527.293.293 0 0 1-.257.527zm-.423 1.059a.293.293 0 1 1 .21-.548.293.293 0 0 1-.21.548zm-.315 1.097a.293.293 0 1 1 .151-.568.293.293 0 0 1-.151.567zm-.209 1.12a.294.294 0 1 1 .09-.58.294.294 0 0 1-.09.58zm16.347 12.793a.293.293 0 1 1-.548.21.293.293 0 0 1 .548-.21zm1.035-.48a.293.293 0 1 1-.523.267.293.293 0 0 1 .523-.267zm.987-.571a.293.293 0 1 1-.497.311.293.293 0 0 1 .497-.311z" fill="none" stroke="#002868" stroke-width=".14" stroke-miterlimit="3.864"/>
	<path d="M-34.43 9.415a.293.293 0 1 1-.463.361.293.293 0 0 1 .462-.361z" fill="none" stroke="#000" stroke-width=".14" stroke-miterlimit="3.864"/>
	<path d="M-32.779 7.846a.293.293 0 1 1-.4.429.293.293 0 0 1 .4-.43zm.702-.9a.293.293 0 1 1-.353.468.293.293 0 0 1 .353-.468zm.617-.96a.293.293 0 1 1-.31.498.293.293 0 0 1 .31-.498zm.518-1.016a.293.293 0 1 1-.256.528.293.293 0 0 1 .256-.528zm.423-1.059a.294.294 0 1 1-.21.548.294.294 0 0 1 .21-.548zm.315-1.096a.293.293 0 1 1-.151.567.293.293 0 0 1 .151-.567zm.209-1.121a.294.294 0 1 1-.09.58.294.294 0 0 1 .09-.58zm.113-1.134a.294.294 0 1 1-.05.584.294.294 0 0 1 .05-.585zm-.005-1.141a.294.294 0 1 1 .01.587.294.294 0 0 1-.01-.587zM-30-1.716a.294.294 0 1 1 .072.584.294.294 0 0 1-.071-.584zm-.22-1.119a.294.294 0 1 1 .133.573.294.294 0 0 1-.132-.573zm-.32-1.093a.294.294 0 1 1 .182.558.294.294 0 0 1-.182-.558zm-.43-1.057a.294.294 0 1 1 .24.537.294.294 0 0 1-.24-.537zm-.522-1.013a.294.294 0 1 1 .285.514.294.294 0 0 1-.285-.514zm-.622-.956a.294.294 0 1 1 .337.482.294.294 0 0 1-.337-.482zm-.701-.899a.294.294 0 1 1 .37.457.294.294 0 0 1-.37-.457zm-.787-.826a.294.294 0 1 1 .408.423.294.294 0 0 1-.408-.423zm-.866-.744a.294.294 0 1 1 .45.378.294.294 0 0 1-.45-.378zM-53.833.615a.294.294 0 1 1-.011-.587.294.294 0 0 1 .01.587zm.112 1.135a.294.294 0 1 1-.072-.583.294.294 0 0 1 .072.583zm.22 1.119a.294.294 0 1 1-.133-.573.294.294 0 0 1 .133.573zm.321 1.093a.294.294 0 1 1-.182-.558.294.294 0 0 1 .182.558zm.429 1.057a.294.294 0 1 1-.239-.537.294.294 0 0 1 .239.537zm.523 1.013a.294.294 0 1 1-.285-.515.294.294 0 0 1 .285.515zm.622.956a.294.294 0 1 1-.337-.482.294.294 0 0 1 .337.482zm.701.899a.294.294 0 1 1-.37-.457.294.294 0 0 1 .37.457zm.787.826a.294.294 0 1 1-.408-.423.294.294 0 0 1 .408.423z" fill="none" stroke="#002868" stroke-width=".14" stroke-miterlimit="3.864"/>
	<path d="M-49.252 9.457a.294.294 0 1 1-.45-.378.294.294 0 0 1 .45.378z" fill="none" stroke="#000" stroke-width=".14" stroke-miterlimit="3.864"/>
	<path d="M-47.332 10.686a.294.294 0 1 1-.514-.285.294.294 0 0 1 .514.285zm1.04.47a.294.294 0 1 1-.541-.23.294.294 0 0 1 .541.23zm1.079.372a.294.294 0 1 1-.56-.182.294.294 0 0 1 .56.182zm1.11.263a.294.294 0 1 1-.574-.122.294.294 0 0 1 .574.122zm1.131.156a.294.294 0 1 1-.585-.062.294.294 0 0 1 .585.062zm1.139.059a.294.294 0 1 1-.587-.02.294.294 0 0 1 .587.02zm1.14-.059a.293.293 0 1 1-.585.041.293.293 0 0 1 .585-.04zm1.129-.167a.294.294 0 1 1-.578.102.294.294 0 0 1 .578-.102zm1.109-.268a.293.293 0 1 1-.567.152.293.293 0 0 1 .567-.152z" fill="none" stroke="#002868" stroke-width=".14" stroke-miterlimit="3.864"/>
	<path d="M-53.839-.525a.294.294 0 1 1 .051-.586.294.294 0 0 1-.05.586zm0 0a.294.294 0 1 1 .051-.586.294.294 0 0 1-.05.586z" fill="none" stroke="#002868" stroke-width=".12" stroke-miterlimit="3.864"/>
	<path fill="#fff" stroke="#002868" stroke-width=".18" stroke-miterlimit="3.864" d="M-51.147 9.566v-.578h19.001v.578zm-.818.613v-.612h20.635v.612z"/>
	<path d="m-48.626-2.252-.002-.022c0-.106.1-.191.221-.191.122 0 .222.085.222.191a.16.16 0 0 1-.001.017m6.303.005-.003-.022c0-.106.1-.191.221-.191.123 0 .222.085.222.191a.16.16 0 0 1-.001.017m6.347.005-.002-.022c0-.106.099-.191.22-.191.123 0 .222.085.222.191a.2.2 0 0 1 0 .017" fill="none" stroke="#002868" stroke-width=".1" stroke-miterlimit="3.864"/>
	<path fill="none" stroke="#002868" stroke-width=".18" stroke-miterlimit="3.864" d="M-50.585-4.466v-.391h17.741v.391z"/>
	<path d="M-49.632-3.726h15.868c.056 0 .102.046.102.102v.034a.102.102 0 0 1-.102.102h-15.868a.102.102 0 0 1-.102-.102v-.034c0-.056.045-.102.102-.102zm14.179 1.472h1.144c.094 0 .17.055.17.123s-.076.123-.17.123h-1.144c-.094 0-.17-.055-.17-.123s.076-.123.17-.123zm1.468 7.433-.307-7.195m-1.413 7.144.221-7.144m1.541 7.858v2.747m-1.864.034V5.851m.442 2.228V6.48h.996v1.599h-.996zm-.338-2.92h1.65c.117 0 .212.074.212.167 0 .092-.095.167-.212.167h-1.65c-.117 0-.212-.075-.212-.167 0-.093.095-.168.212-.168zm-.096.334h1.89c.132 0 .239.08.239.18 0 .098-.107.178-.239.178h-1.89c-.131 0-.238-.08-.238-.179 0-.099.107-.179.238-.179zm-6.413-7.747h1.144c.094 0 .17.055.17.123s-.076.123-.17.123h-1.144c-.094 0-.17-.055-.17-.123s.076-.123.17-.123zm1.467 7.433-.306-7.195m-1.413 7.144.221-7.144m1.541 7.858v2.747m-1.864.034V5.851m-.42 3.12v-.356h2.657v.357h-2.656zm.862-.892V6.48h.996v1.599h-.996zm-.338-2.92h1.65c.117 0 .212.074.212.167 0 .092-.095.167-.212.167h-1.65c-.117 0-.212-.075-.212-.167 0-.093.095-.168.212-.168zm-.096.334h1.89c.132 0 .238.08.238.18 0 .098-.106.178-.238.178h-1.89c-.132 0-.238-.08-.238-.179 0-.099.106-.179.238-.179zm-6.414-7.747h1.145c.094 0 .17.055.17.123s-.076.123-.17.123h-1.145c-.094 0-.17-.055-.17-.123s.076-.123.17-.123zm1.468 7.433-.306-7.195m-1.414 7.144.222-7.144m1.54 7.858v2.747m-1.864.034V5.851m-.417 3.12v-.356h2.656v.357h-2.656zm.86-.892V6.48h.996v1.599h-.996zm-.338-2.92h1.65c.117 0 .212.074.212.167 0 .092-.095.167-.212.167h-1.65c-.117 0-.212-.075-.212-.167 0-.093.095-.168.212-.168zm-.096.334h1.89c.131 0 .238.08.238.18 0 .098-.107.178-.238.178h-1.89c-.132 0-.238-.08-.238-.179 0-.099.106-.179.238-.179z" fill="none" stroke="#002868" stroke-width=".16" stroke-miterlimit="3.864"/>
	<path fill="#fff" stroke="#002868" stroke-width=".16" stroke-miterlimit="3.864" d="M-36.182 8.972v-.357h2.656v.357z"/>
	<path d="M-48.067-2.465s0 .065.059.063c.058-.003.066-.029.069-.055.002-.026-.003-.313.028-.402.03-.089.086-.23.194-.284.209-.106.497.035.09.211-.109.047-.157.121-.182.153a.307.307 0 0 0-.056.112c-.007.031-.027.083-.035.125-.004.022-.025.137.046.141.072.004.064-.024.066-.038.003-.014-.029-.124 0-.184a.382.382 0 0 1 .085-.133c.033-.027.229-.097.266-.116.05-.025.37-.16.104-.4-.056-.049-.217-.114-.346-.056a.63.63 0 0 0-.294.279.848.848 0 0 0-.084.282c-.015.092-.015.3-.015.3l.005.002zm-.152-.041c-.064-.095-.146-.188-.165-.29a.648.648 0 0 1 .036-.33c.04-.098.1-.159.18-.184.066-.012.116.007.148.057.019.03.022.06.01.09a.078.078 0 0 1-.053.036.062.062 0 0 1-.05-.025.262.262 0 0 0-.124.15c-.025.073-.02.145-.018.207.009.074.04.13.067.172l.043.1c.001.013-.005.027-.019.04-.022.004-.04-.003-.055-.023zm-.388.005a.778.778 0 0 0 .124-.295.648.648 0 0 0-.036-.33c-.04-.098-.1-.159-.18-.184-.066-.012-.116.007-.148.057a.092.092 0 0 0-.009.09c.01.017.028.03.053.036.019 0 .035-.008.05-.025.043.022.095.07.123.15.025.073.02.145.018.207a.888.888 0 0 1-.038.186l-.03.091c-.002.013.004.026.018.039.022.005.04-.003.055-.022zm-.191.036s0 .065-.058.063c-.06-.003-.067-.029-.07-.055-.002-.026.003-.313-.027-.402-.031-.089-.087-.23-.194-.284-.21-.106-.498.035-.091.211.11.047.157.121.183.153.025.03.05.08.056.112.006.031.026.083.034.125.004.022.026.137-.046.141-.071.004-.064-.024-.066-.038-.003-.014.03-.124.001-.184a.38.38 0 0 0-.085-.133c-.034-.027-.23-.097-.267-.116-.05-.025-.37-.16-.104-.4.056-.049.217-.114.346-.056a.63.63 0 0 1 .294.279.852.852 0 0 1 .084.282c.015.092.015.3.015.3l-.005.002zm7.5 0s0 .065.059.063c.059-.003.067-.029.069-.055.003-.026-.002-.313.028-.402.03-.089.087-.23.194-.284.21-.106.498.035.09.211-.109.047-.156.121-.182.153a.311.311 0 0 0-.056.112c-.006.031-.027.083-.034.125-.004.022-.026.137.046.141.071.004.063-.024.066-.038.003-.014-.03-.124-.001-.184a.377.377 0 0 1 .085-.133c.033-.027.23-.097.267-.116.05-.025.37-.16.103-.4-.055-.049-.216-.114-.346-.056a.63.63 0 0 0-.293.279.857.857 0 0 0-.084.282 2.74 2.74 0 0 0-.016.3l.005.002zm-.152-.041c-.063-.095-.146-.188-.164-.29a.647.647 0 0 1 .036-.33c.039-.098.099-.159.18-.184.066-.012.115.007.148.057.018.03.021.06.009.09a.078.078 0 0 1-.053.036c-.019 0-.035-.008-.05-.025a.262.262 0 0 0-.123.15c-.025.073-.02.145-.018.207a.4.4 0 0 0 .066.172l.044.1c.001.013-.005.027-.02.04a.05.05 0 0 1-.054-.023zm-.388.005a.772.772 0 0 0 .124-.295.647.647 0 0 0-.035-.33c-.04-.098-.1-.159-.18-.184-.067-.012-.116.007-.148.057a.092.092 0 0 0-.01.09c.011.017.029.03.053.036.02 0 .036-.008.05-.025.044.022.095.07.124.15.024.073.02.145.017.207a.897.897 0 0 1-.038.186l-.03.091c-.002.013.005.026.019.039.022.005.04-.003.054-.022zm-.19.036s0 .065-.059.063c-.059-.003-.066-.029-.069-.055-.002-.026.003-.313-.028-.402-.03-.089-.087-.23-.194-.284-.209-.106-.498.035-.09.211.109.047.156.121.182.153.025.03.05.08.056.112.007.031.027.083.034.125.004.022.026.137-.045.141-.072.004-.064-.024-.067-.038-.002-.014.03-.124.001-.184a.378.378 0 0 0-.085-.133c-.033-.027-.23-.097-.267-.116-.05-.025-.37-.16-.103-.4.055-.049.216-.114.346-.056a.63.63 0 0 1 .293.279.851.851 0 0 1 .084.282c.015.092.016.3.016.3l-.005.002zm7.5 0s0 .065.059.063c.058-.003.066-.029.068-.055.003-.026-.002-.313.028-.402.031-.089.087-.23.195-.284.208-.106.497.035.09.211-.11.047-.157.121-.182.153a.307.307 0 0 0-.057.112c-.006.031-.026.083-.034.125-.004.022-.026.137.046.141.071.004.064-.024.066-.038.003-.014-.029-.124 0-.184a.377.377 0 0 1 .085-.133c.033-.027.229-.097.266-.116.05-.025.37-.16.104-.4-.056-.049-.217-.114-.346-.056a.632.632 0 0 0-.294.279.856.856 0 0 0-.084.282c-.015.092-.015.3-.015.3l.005.002zm-.152-.041c-.064-.095-.146-.188-.165-.29a.647.647 0 0 1 .036-.33c.04-.098.1-.159.18-.184.066-.012.116.007.148.057.019.03.022.06.009.09a.077.077 0 0 1-.052.036.062.062 0 0 1-.05-.025.262.262 0 0 0-.124.15c-.025.073-.02.145-.018.207.009.074.04.13.067.172l.043.1c.002.013-.005.027-.019.04-.022.004-.04-.003-.055-.023zm-.388.005a.78.78 0 0 0 .124-.295.647.647 0 0 0-.036-.33c-.04-.098-.1-.159-.18-.184-.066-.012-.116.007-.148.057a.092.092 0 0 0-.009.09c.01.017.028.03.052.036.02 0 .036-.008.05-.025.044.022.096.07.124.15.025.073.02.145.018.207a.882.882 0 0 1-.038.186l-.031.091c-.001.013.005.026.019.039.022.005.04-.003.055-.022zm-.191.036s0 .065-.059.063c-.058-.003-.066-.029-.069-.055-.002-.026.003-.313-.028-.402-.03-.089-.086-.23-.194-.284-.209-.106-.497.035-.09.211.11.047.157.121.182.153.026.03.05.08.056.112.007.031.027.083.035.125.004.022.025.137-.046.141-.072.004-.064-.024-.066-.038-.003-.014.029-.124 0-.184a.38.38 0 0 0-.085-.133c-.033-.027-.229-.097-.266-.116-.05-.025-.37-.16-.104-.4.056-.049.217-.114.346-.056a.63.63 0 0 1 .294.279.852.852 0 0 1 .084.282c.015.092.015.3.015.3l-.005.002z" fill="#002868"/>
	<path d="M-53.037 3.827c-.451-.324-.928-.239-.928-.239s.344-.457.894-.23c.349.145.647.681 1.532.12.885-.562 1.175-.97 2.009-1.106a9.836 9.836 0 0 0 1.617-.391c.188-.068.48-.175.63-1.072.034-.204.852 1.701.852 1.701s-.12.63-.903.987-2.14.57-2.894 1.173c-.255.205-.746.557-1.043.991-.698 1.02-1.426 1.136-1.426 1.136s.66-.576.843-1.353c.034-.144-.022-.794.238-1.054-.276.276-.975-.268-.885-.196 0 0-.085-.144-.536-.467zM-36.14.952s.137.774 1.66 1.165c1.525.391 1.763.885 2.01 1.004.247.119.92.654 1.575.348.655-.306 1.166-.323 1.336-.22.17.101.043-.128-.493.442-.537.57-.698.689-.886.782-.409.204-.44.23-.732.247 0 0 .273.34.315.893.042.552.783 1.114.783 1.114s-.987-.255-1.421-.842c-.434-.587-1.15-1.089-1.413-1.216-.264-.128-1.61-.587-1.89-.698-.281-.11-1.158-.57-1.277-1.31-.12-.74.434-1.71.434-1.71z" fill="#fff" stroke="#002868" stroke-width=".14" stroke-miterlimit="3.864"/>
	<path d="M-34.824.68c.191.049.517.207.71.344.937.67.78 1.214.52 1.23-.29.016 1.822 0 2.077-.137.256-.136.34-.29.187-.612-.153-.324-1.31-2.297-3.2-2.67-1.89-.375-2.64.419-2.478.688.154.255.852 1.106.877 1.454.194-.364.63-.468 1.307-.297z" fill="#fff" stroke="#002868" stroke-width=".14" stroke-miterlimit="3.864"/>
	<path d="M-46.159-3.496s1.462 2.5 4.435 2.466c2.937-.034 4.436-2.38 4.436-2.38l.783 1.156s.29.391-.273.884C-38.762.373-40.335.715-41.724.705c-2.05-.112-3.705-.803-4.963-2.075-.226-.187-.272-.433-.204-.638l.732-1.488z" fill="#fff" stroke="#002868" stroke-width=".14" stroke-linejoin="round" stroke-miterlimit="3.864"/>
	<path d="M-36.45-2.093c-.255-.548-.723.124-.723.124l-.118-1.434m-9.63 1.655s-.09-.506.711-.098l.06-1.641" fill="none" stroke="#002868" stroke-width=".12" stroke-miterlimit="3.864"/>
	<path d="M-33.764-3.734s.255-.63.613-.749m-16.958.034s.307.137.562.68" fill="none" stroke="#002868" stroke-width=".18" stroke-miterlimit="3.864"/>
	<path d="M-50.81 1.56c-1.034-.403-.746-.656-.746-.656.23-.369.842-1.161 2.103-1.645 1.685-.646 3.405-.357 2.945.392-.28.455-.762 1.25-.762 1.25s-.2-.536-1.12-.196c-.919.34-1.426.603-1.48.783-.086.28-.052.459.612.357-.434.145-.917-.006-1.46-.247l-.092-.037zm1.518.297.15-.053" fill="#fff" stroke="#002868" stroke-width=".14" stroke-miterlimit="3.864"/>
	<path d="M-38.228 1.828c-.004-.027.031-.055.079-.063.048-.007.09.009.094.036.005.027-.03.055-.079.062-.048.008-.09-.008-.094-.035m-.329-.011c.002-.026.044-.044.093-.04.05.005.087.03.085.056-.002.026-.044.043-.093.039-.05-.005-.088-.03-.085-.055" fill="#002868"/>
	<path d="M-38.47 2.332s.192.27.475-.095" fill="none" stroke="#002868" stroke-width=".075" stroke-miterlimit="3.864"/>
	<path d="M-38.576 1.733s.3-.012.23.138c-.016.033-.043.055-.056.078-.047.084-.029.109.027.1.072-.012.072-.008.072-.008h.026" fill="none" stroke="#002868" stroke-width=".06" stroke-linecap="round" stroke-linejoin="round" stroke-miterlimit="3.864"/>
	<path d="M-38.02 1.722c-.056-.017-.176-.039-.233.061" fill="none" stroke="#002868" stroke-width=".06" stroke-linecap="round" stroke-miterlimit="3.864"/>
	<path d="M-38.366 2.142a.574.574 0 0 0 .17-.005" fill="none" stroke="#002868" stroke-width=".075" stroke-linecap="round" stroke-miterlimit="3.864"/>
	<path stroke-miterlimit="3.864" fill="none" stroke="#002868" stroke-width=".06" d="m-38.327 2.231.103-.004"/>
	<path d="m-37.692 1.757.124.056a.178.178 0 0 0 .138-.083.846.846 0 0 0-.138-.266" fill="none" stroke="#002868" stroke-width=".09" stroke-linejoin="round" stroke-miterlimit="3.864"/>
	<path d="M-39.369 4.089c-.068.102-.404-.092-.42.197-.014.222.03.38.245.408l.158-.105.043-.042" fill="none" stroke="#002868" stroke-width=".1" stroke-linejoin="round" stroke-miterlimit="3.864"/>
	<path d="m-37.692 5.401-.091.196c-.019.055.024.123.024.123l-.017.062-.01.058.03.093c.06.154.179.108.315-.034" fill="none" stroke="#002868" stroke-width=".08" stroke-linejoin="round" stroke-miterlimit="3.864"/>
	<path d="M-39.561 3.876c-.033-.875.038-1.881.077-3.141-.275.397-.282 2.945-.277 3.142h.2z" fill="none" stroke="#002868" stroke-width=".079" stroke-miterlimit="3.864"/>
	<path d="m-39.35 4.54.045-.031.183-.052.297-.119c.012.15.016.518.005.706-.011.207-.01.415 0 .815.008.4.11.638.144.783.034.144.272 1.428.306 1.751.035.324-.06.17-.374.35-.315.178-.136.203-.136.203h1.251s-.085-.119-.102-.434c-.017-.314.162-1.488.162-1.488l.178-1.31.026-.23s.248-.33.282-1.18c.048-.389.013-.777-.013-1.148 0 0 .037-.223-.2-.435-.24-.213-.367-.238-.401-.46-.004-.027-.033-.036-.037-.054" fill="none" stroke="#002868" stroke-width=".12" stroke-linejoin="round" stroke-miterlimit="3.864"/>
	<path d="M-37.594 3.241c.051.86.034 1.498-.06 1.819l-.052.348-.002.004" fill="none" stroke="#002868" stroke-width=".08" stroke-miterlimit="3.864"/>
	<path d="M-37.687 5.401s.126-.677.36-.881c.015-.013.11.357-.013.956" fill="none" stroke="#002868" stroke-width=".08" stroke-linejoin="round" stroke-miterlimit="3.864"/>
	<path d="M-38.797 2.758c.471.84.741 1.236 1.218 1.704m-1.02-1.835c.38.648.768 1.136 1.03 1.422" fill="none" stroke="#002868" stroke-width=".1" stroke-miterlimit="3.864"/>
	<path d="M-38.263 4.511s.37 1.357.676 1.816l.103.22m-.707-2.257s.205.663.51.936m-.54-2.76c.034 0 .29.22.29.22s.025.111.136-.008c.11-.119.187-.272.187-.272" fill="none" stroke="#002868" stroke-width=".08" stroke-miterlimit="3.864"/>
	<path d="M-38.194 8.94v-.043l.043-.132s.042-.08.062-.1c.132-.122.007-.6-.017-1.564l-.118-1.64" fill="none" stroke="#002868" stroke-width=".1" stroke-linecap="round" stroke-miterlimit="3.864"/>
	<path d="M-38.484 2.316c-.003.08-.085.224-.168.299a.831.831 0 0 0-.254.677c.025.257.085.538.012.569a4.152 4.152 0 0 0-.455.244" fill="none" stroke="#002868" stroke-width=".12" stroke-linejoin="round" stroke-miterlimit="3.864"/>
	<path d="M-37.689 5.425a.83.83 0 0 0 .324.103" fill="none" stroke="#002868" stroke-width=".08" stroke-miterlimit="3.864"/>
	<path d="M-38.828 5.146s.702-.31.702-1.34" fill="none" stroke="#002868" stroke-width=".1" stroke-miterlimit="3.864"/>
	<path d="M-37.706 2.168c-.493.45-.552.282-.552.282.175.086.12.637.153.927" fill="none" stroke="#002868" stroke-width=".1" stroke-linejoin="bevel" stroke-miterlimit="3.864"/>
	<path stroke-miterlimit="3.864" transform="matrix(0 -.11881 .11893 0 -86.006 36.045)" fill="none" stroke="#002868" stroke-width=".675" d="m281.499 398.444-1.039.895 2.327 2.29"/>
	<path d="M-38.795 6.267s.042-.348.153-.629c.11-.28.383-1.072.383-1.072" fill="none" stroke="#002868" stroke-width=".1" stroke-miterlimit="3.864"/>
	<path d="M-38.862 3.722c.001.044.011.239.04.66" fill="none" stroke="#002868" stroke-width=".12" stroke-miterlimit="3.864"/>
	<path d="M-39.385 4.055s.106.28.004.526" fill="none" stroke="#002868" stroke-width=".1" stroke-linejoin="round" stroke-miterlimit="3.864"/>
	<path d="M-37.563 1.472c-.11-.163-.152-.274-.405-.305-.254-.032-.563-.064-.698-.127-.134-.063-.253-.13-.19.044.066.182.045.474.213.442m.008.008a.545.545 0 0 1 .025.136c0 .04 0 .277.047.388.046.106.086.276.086.276" fill="none" stroke="#002868" stroke-width=".09" stroke-linejoin="round" stroke-miterlimit="3.864"/>
	<path d="M-37.744 2.2c-.025-.122-.035-.08.013-.261.056-.206.033-.076.033-.2" fill="none" stroke="#002868" stroke-width=".08" stroke-linejoin="round" stroke-miterlimit="3.864"/>
	<path d="M-37.98 1.59c.094-.081.185-.173.273-.277m-.467.214c.103-.084.209-.187.316-.31m-.791.303c.503-.025.605-.018.962.229" fill="none" stroke="#002868" stroke-width=".075" stroke-miterlimit="3.864"/>
	<path d="M-37.826 1.852s.004.19-.083.25" fill="none" stroke="#002868" stroke-width=".06" stroke-miterlimit="3.864"/>
	<path d="M-38.67 6.613c.1-.112.383-.116.51-.012l.013-.068c-.08.003.522-.208.6.2" fill="none" stroke="#002868" stroke-width=".08" stroke-miterlimit="3.864"/>
	<path d="m-39.56 3.884.126.004h.06s.037.071-.02.096c-.057.025-.073.03-.073.03l-.004.089m.007-.092h-.218s-.117.031-.122.126c-.008.15-.01.362.054.445l.065.067m.229-.008c-.07.112-.12.122-.242.133-.164.014-.328-.177-.366-.454-.043-.307.018-.438.36-.437" fill="none" stroke="#002868" stroke-width=".077" stroke-linejoin="round" stroke-miterlimit="3.864"/>
	<path d="M-47.26-4.851c.92-2.193 3.053-3.729 5.536-3.729 2.485 0 4.618 1.538 5.538 3.732m-13.272-.026c1.02-3.373 4.097-5.824 7.734-5.824 3.64 0 6.719 2.455 7.738 5.831" fill="none" stroke="#002868" stroke-width=".18" stroke-linejoin="round" stroke-miterlimit="3.864"/>
	<path d="M-46.621-6.767c0 .02-.01.05-.028.092a.625.625 0 0 1-.078.13.473.473 0 0 1-.325.198c-.13.016-.268-.03-.414-.14l-.036-.028a.587.587 0 0 1-.243-.356.45.45 0 0 1 .087-.371.852.852 0 0 1 .1-.114.321.321 0 0 1 .079-.057l.143.108a.353.353 0 0 0-.074.048.49.49 0 0 0-.085.089.235.235 0 0 0-.037.228c.027.081.091.16.192.236l.012.01c.108.08.201.122.28.124a.219.219 0 0 0 .19-.091.49.49 0 0 0 .098-.211l.139.105z" fill="#002868"/>
	<path d="m-46.228-7.874-.02-.023a1.039 1.039 0 0 0-.233-.207c-.062-.035-.125-.023-.189.034-.059.053-.078.11-.057.172.021.062.083.15.186.264l.019.02a.979.979 0 0 0 .24.215c.055.027.115.013.177-.044a.156.156 0 0 0 .05-.17.737.737 0 0 0-.173-.26zm.19-.151c.12.132.18.26.184.383a.4.4 0 0 1-.144.318.401.401 0 0 1-.33.108c-.123-.015-.243-.088-.36-.219l-.043-.047a.66.66 0 0 1-.184-.373.386.386 0 0 1 .143-.338.369.369 0 0 1 .346-.1c.124.03.24.104.348.223l.04.045z" fill="#002868" fill-rule="evenodd"/>
	<path fill="#002868" d="m-44.742-8.248-.825-.331.365.607-.147.089-.582-.967.111-.067.782.31-.344-.573.147-.088.582.967zm1.039-.807c.04.112.035.208-.016.288a.517.517 0 0 1-.269.188 1.129 1.129 0 0 1-.188.054.634.634 0 0 1-.136.011l-.066-.183a.701.701 0 0 0 .304-.036c.073-.026.12-.055.14-.086.021-.03.023-.07.005-.117a.134.134 0 0 0-.06-.072.57.57 0 0 0-.205-.032.477.477 0 0 1-.218-.059.328.328 0 0 1-.135-.18.278.278 0 0 1 .023-.242.438.438 0 0 1 .244-.184.766.766 0 0 1 .262-.05l.06.161a2.2 2.2 0 0 0-.124.016.683.683 0 0 0-.125.032c-.06.023-.101.048-.12.077a.094.094 0 0 0-.014.089c.014.037.034.062.061.074a.719.719 0 0 0 .208.02.438.438 0 0 1 .241.062c.058.04.1.095.128.169zm.73-.807.183.942-.237.046-.183-.942-.235.046-.032-.165.7-.136.033.165zm.811-.264.242-.008.039 1.127-.242.009zm1.283.203-.083.956-.241-.021.084-.956-.238-.021.014-.168.711.062-.014.168zm1.363.94a.332.332 0 0 1-.155.217c-.075.042-.176.046-.301.012-.135-.036-.224-.093-.267-.171-.042-.078-.047-.178-.014-.3l.197-.733.233.062-.204.763c-.016.059-.016.107.001.143.018.037.058.063.121.08.058.015.105.014.14-.005.035-.02.062-.063.08-.131l.204-.758.173.046-.208.775zm1.116-.183-.422.862-.217-.106.42-.862-.214-.105.074-.151.641.313-.073.15zm.992.4-.2-.135-.631.935.2.135z"/>
	<path d="m-36.818-7.497.022-.023c.096-.1.16-.182.19-.246s.015-.126-.047-.185c-.057-.055-.115-.07-.175-.045a.91.91 0 0 0-.25.204l-.02.02a.977.977 0 0 0-.197.253c-.024.058-.005.116.056.175.05.048.107.06.173.037a.748.748 0 0 0 .248-.19zm.165.18c-.124.127-.247.197-.37.208a.401.401 0 0 1-.327-.12.4.4 0 0 1-.131-.322c.007-.123.071-.248.193-.374l.044-.047a.665.665 0 0 1 .36-.21.387.387 0 0 1 .347.12.368.368 0 0 1 .123.338.677.677 0 0 1-.197.362l-.042.044z" fill="#002868" fill-rule="evenodd"/>
	<path fill="#002868" d="m-36.339-6.042.273-.846-.58.407-.1-.141.925-.647.075.106-.255.801.548-.383.099.141-.925.647zm-18.965 7.43a.657.657 0 0 1 .506.111.665.665 0 0 1 .246.458c.013.09.012.2-.003.33a1.15 1.15 0 0 0-.006.287 7.49 7.49 0 0 0-.511.109c-.016.002-.026-.012-.03-.042-.004-.021.003-.036.018-.043.18-.081.303-.17.368-.265a.519.519 0 0 0 .065-.374c-.017-.122-.066-.212-.146-.268a.418.418 0 0 0-.312-.06.35.35 0 0 0-.215.12c-.062.068-.136.206-.22.412-.096.238-.183.396-.261.476a.474.474 0 0 1-.279.143.554.554 0 0 1-.443-.123.66.66 0 0 1-.237-.44 1.22 1.22 0 0 1-.005-.248 1.172 1.172 0 0 0-.006-.227c.177-.037.331-.075.464-.114.016-.003.026.01.03.036.004.028-.002.045-.018.05-.147.055-.25.12-.306.198a.386.386 0 0 0-.061.294.368.368 0 0 0 .138.256.37.37 0 0 0 .284.062.319.319 0 0 0 .195-.112c.057-.066.126-.2.21-.402.098-.24.186-.4.263-.481a.456.456 0 0 1 .272-.143zm-.846-3.992c.019.002.026.022.022.058-.002.016-.01.025-.025.028-.149.026-.257.076-.326.15-.07.073-.114.19-.134.349l-.018.142c-.006.05-.002.085.012.105.014.02.044.033.088.039l1.544.19a.33.33 0 0 0 .152-.008.189.189 0 0 0 .08-.086.957.957 0 0 0 .063-.19c.004-.016.02-.022.045-.02.028.004.041.014.04.03a3.9 3.9 0 0 1-.04.242 2.7 2.7 0 0 0-.036.223 3.495 3.495 0 0 0-.02.229 3.901 3.901 0 0 1-.02.244c-.002.016-.017.022-.046.019-.025-.003-.038-.013-.038-.03a.579.579 0 0 0-.037-.257c-.026-.048-.087-.078-.18-.09l-1.545-.19c-.044-.005-.076 0-.094.017-.019.016-.031.05-.037.1l-.015.119a.724.724 0 0 0 .062.402.504.504 0 0 0 .253.263c.015.007.021.019.019.036-.004.034-.018.05-.04.047a5.56 5.56 0 0 0-.5-.225c.045-.134.098-.447.159-.94.062-.505.087-.828.076-.97a5.06 5.06 0 0 0 .535-.026z"/>
	<path d="M-54.812-4.903h-.828l.646.53.182-.53zm1.163-.58c.027.01.038.022.032.037a3.49 3.49 0 0 1-.086.223 2.48 2.48 0 0 0-.14.404c-.025.093-.05.172-.072.237-.005.015-.021.018-.048.01-.027-.01-.039-.02-.035-.032a.536.536 0 0 0 .03-.197.097.097 0 0 0-.068-.087.447.447 0 0 0-.13-.012l-.542-.003-.206.596.393.32a.48.48 0 0 0 .128.08c.085.028.158-.034.22-.187.004-.012.02-.013.046-.004.027.01.038.022.033.037a2.53 2.53 0 0 1-.075.19 1.887 1.887 0 0 0-.115.334 2.06 2.06 0 0 1-.05.171c-.005.015-.02.018-.043.01-.027-.01-.038-.026-.032-.049a.373.373 0 0 0-.002-.212.63.63 0 0 0-.174-.224l-1.43-1.25c-.014-.011-.018-.027-.01-.048.008-.023.02-.035.037-.036l1.872-.025a.474.474 0 0 0 .254-.065.494.494 0 0 0 .164-.202c.008-.02.025-.024.049-.016z" fill="#002868" fill-rule="evenodd"/>
	<path d="M-53.378-8.905c.016.01.015.032-.006.062-.008.014-.02.019-.034.014-.145-.041-.264-.044-.359-.008-.095.036-.186.121-.273.255l-.079.121c-.027.042-.039.075-.035.1.004.024.024.048.062.072l1.304.847c.06.038.106.058.14.06a.185.185 0 0 0 .11-.043.945.945 0 0 0 .14-.142c.011-.013.027-.012.048.002.024.016.032.03.023.044a3.838 3.838 0 0 1-.141.2 3.479 3.479 0 0 0-.13.184 3.554 3.554 0 0 0-.118.197 3.864 3.864 0 0 1-.126.21c-.009.015-.025.014-.05-.002-.02-.014-.028-.028-.02-.043a.578.578 0 0 0 .079-.248c-.002-.055-.043-.108-.123-.16l-1.305-.846c-.037-.025-.068-.034-.092-.027-.023.007-.05.031-.077.074l-.065.1a.723.723 0 0 0-.121.389.503.503 0 0 0 .112.347c.01.012.01.026.001.04-.019.03-.037.038-.056.026a5.561 5.561 0 0 0-.351-.421c.1-.101.284-.36.555-.776.277-.427.442-.706.494-.838.119.06.283.13.493.21zm3.088-1.526c.06.185.125.354.197.507-.29.254-.495.436-.615.547-.118.11-.314.301-.588.573-.012.011-.027.007-.047-.014-.017-.019-.02-.035-.01-.047a.93.93 0 0 0 .115-.162.18.18 0 0 0 .021-.114c-.006-.033-.033-.076-.082-.128l-.983-1.054a.306.306 0 0 0-.12-.091.168.168 0 0 0-.116.011.848.848 0 0 0-.173.105c-.012.01-.028.006-.047-.015-.02-.02-.023-.037-.011-.048a16.562 16.562 0 0 0 1.157-1.078c.125.1.257.19.395.272.014.015.008.035-.018.06-.013.011-.026.013-.038.006-.22-.125-.42-.103-.601.065l-.227.21c-.086.082-.088.167-.004.256l.465.499.282-.264c.075-.07.11-.133.104-.192a.522.522 0 0 0-.115-.235c-.01-.012-.006-.027.015-.047.02-.02.037-.023.048-.011.035.037.076.086.125.147.046.059.086.105.118.14.032.035.076.077.132.128.059.054.105.1.14.137.011.012.007.027-.014.047s-.037.023-.049.011a.552.552 0 0 0-.238-.136c-.061-.01-.128.017-.199.083l-.282.263.514.55c.082.089.167.093.253.012l.245-.228a.653.653 0 0 0 .184-.332.731.731 0 0 0-.01-.397c-.004-.01 0-.019.01-.028a.065.065 0 0 1 .036-.017c.013-.002.023 0 .03.009z" fill="#002868"/>
	<path d="M-46.64-13.123c-.122-.275-.29-.47-.5-.586a.686.686 0 0 0-.64-.028.686.686 0 0 0-.409.495c-.054.233-.02.487.103.762.122.273.286.465.492.577.207.11.42.116.64.019a.691.691 0 0 0 .412-.487c.056-.228.024-.48-.098-.752zm.308-.137c.132.295.145.58.038.853-.107.272-.314.476-.62.612-.308.137-.598.154-.872.051-.274-.104-.476-.304-.608-.6a1.094 1.094 0 0 1-.04-.861c.105-.28.31-.486.614-.621.305-.136.596-.15.874-.04.277.107.482.31.614.606z" fill="#002868" fill-rule="evenodd"/>
	<path d="M-43.885-14.413c.004.02-.011.034-.047.04-.017.004-.028-.001-.035-.014a.491.491 0 0 0-.232-.23.538.538 0 0 0-.33-.03l-.271.053c-.119.023-.166.095-.143.215l.13.669.343-.067c.1-.02.164-.056.19-.108a.532.532 0 0 0 .029-.26c-.003-.016.009-.027.036-.032.028-.006.044 0 .047.016.01.05.019.114.028.19.008.075.016.135.025.181.01.047.024.107.044.179.022.077.037.14.047.19.003.017-.01.027-.038.033-.027.005-.042 0-.045-.016a.562.562 0 0 0-.131-.242c-.047-.042-.118-.053-.213-.035l-.343.067.135.694a.33.33 0 0 0 .054.143.19.19 0 0 0 .107.05.946.946 0 0 0 .2 0c.017 0 .029.011.033.036.006.028 0 .044-.015.047a3.883 3.883 0 0 1-.243.038 3.41 3.41 0 0 0-.227.035 3.782 3.782 0 0 0-.223.052c-.09.024-.17.042-.237.056-.016.003-.027-.01-.032-.038-.005-.025 0-.04.016-.045a.932.932 0 0 0 .183-.076.18.18 0 0 0 .079-.086c.013-.031.012-.082-.002-.152l-.275-1.414a.306.306 0 0 0-.054-.141.169.169 0 0 0-.103-.052.868.868 0 0 0-.202-.003c-.016.003-.027-.009-.033-.037-.005-.028 0-.044.016-.047a16.603 16.603 0 0 0 1.53-.297c.067.167.134.313.202.438zm5.222.917c-.003.025-.013.038-.03.038a.597.597 0 0 0-.26.033c-.047.025-.078.084-.091.178l-.025.18a1.046 1.046 0 0 0-.012.325 2.73 2.73 0 0 1-.874.063 1.304 1.304 0 0 1-.588-.221.997.997 0 0 1-.352-.447 1.13 1.13 0 0 1-.066-.586 1.08 1.08 0 0 1 .238-.545c.13-.158.293-.271.492-.34a1.36 1.36 0 0 1 .65-.054c.09.012.21.046.36.1.131.047.233.076.305.086a7.595 7.595 0 0 0-.003.525c-.002.016-.02.022-.052.017-.02-.002-.032-.012-.034-.03-.041-.351-.254-.554-.639-.608a.756.756 0 0 0-.64.21 1.11 1.11 0 0 0-.343.686c-.039.276.008.522.14.738a.74.74 0 0 0 .546.372c.339.048.52-.012.543-.18l.057-.4c.007-.056-.014-.099-.064-.13-.05-.032-.176-.072-.376-.12-.016-.003-.022-.02-.018-.05.004-.028.014-.04.03-.038.068.009.168.026.3.05a5.116 5.116 0 0 0 .525.074c.108.009.196.019.263.028.016.003.022.018.018.046zm3.055 1.642a4.422 4.422 0 0 0-.39.379 30.343 30.343 0 0 0-.744-.351c-.148-.066-.4-.171-.758-.317-.015-.007-.017-.023-.005-.05.01-.023.023-.032.039-.027.082.025.146.04.194.043a.18.18 0 0 0 .113-.025.31.31 0 0 0 .087-.126l.586-1.316a.305.305 0 0 0 .037-.146.17.17 0 0 0-.055-.102.86.86 0 0 0-.164-.118c-.015-.007-.017-.023-.005-.05.011-.025.025-.035.04-.028a16.602 16.602 0 0 0 1.446.643c-.043.154-.076.31-.097.47-.008.018-.029.02-.062.006-.016-.007-.022-.018-.02-.033.029-.25-.07-.426-.296-.527l-.282-.126c-.109-.048-.188-.016-.238.096l-.277.622.353.157c.093.042.166.048.218.02a.521.521 0 0 0 .171-.197c.007-.015.023-.016.05-.005.025.012.035.025.028.04-.02.047-.05.104-.086.172a1.884 1.884 0 0 0-.149.335 2.479 2.479 0 0 1-.072.182c-.007.015-.023.017-.05.005-.025-.011-.035-.025-.028-.04a.554.554 0 0 0 .032-.272c-.014-.06-.066-.11-.154-.15l-.353-.157-.306.688c-.05.11-.02.189.088.237l.305.136c.112.05.238.062.379.039a.734.734 0 0 0 .362-.164c.007-.007.017-.008.029-.002a.065.065 0 0 1 .03.027c.007.01.009.021.004.032z" fill="#002868"/>
	<path d="M-32.636-10.447c.19-.234.288-.47.295-.71a.684.684 0 0 0-.265-.583.687.687 0 0 0-.627-.14c-.232.058-.443.204-.633.438-.188.233-.285.466-.291.7a.693.693 0 0 0 .273.578c.186.15.393.199.621.146.23-.053.439-.196.627-.429zm.262.212c-.204.252-.452.392-.743.421-.292.029-.568-.063-.829-.274-.261-.211-.408-.462-.44-.753-.032-.29.054-.561.258-.813.204-.252.455-.394.75-.427.297-.033.575.055.833.264.26.21.404.464.433.76.03.296-.058.57-.262.822zm2.379 1.975c.241-.176.285-.368.132-.579a.684.684 0 0 0-.132-.146c-.037-.027-.072-.039-.105-.034a.398.398 0 0 0-.139.074l-.552.401c.029.053.07.115.122.188.097.133.199.207.306.223.107.015.23-.027.368-.127zm-.784 1.534c-.023.017-.04.018-.05.005a2.525 2.525 0 0 1-.1-.156 1.814 1.814 0 0 0-.066-.105 1.549 1.549 0 0 0-.09-.107 1.627 1.627 0 0 1-.09-.107l.34-.82a.774.774 0 0 0 .069-.247c0-.05-.035-.123-.106-.222l-.534.387a.32.32 0 0 0-.106.11.19.19 0 0 0 0 .117.96.96 0 0 0 .083.182c.009.015.003.03-.018.045-.023.017-.04.019-.049.006a3.891 3.891 0 0 1-.136-.204 3.59 3.59 0 0 0-.128-.191 3.363 3.363 0 0 0-.142-.18 3.724 3.724 0 0 1-.15-.19c-.01-.014-.003-.029.02-.046.02-.015.037-.016.048-.004a.924.924 0 0 0 .146.134c.04.026.078.037.111.035.034-.002.08-.024.138-.066l1.166-.847a.302.302 0 0 0 .105-.108.168.168 0 0 0 .003-.116.854.854 0 0 0-.082-.184c-.01-.013-.003-.028.02-.045.023-.017.04-.019.049-.005.04.055.086.122.136.202.048.076.09.14.126.19.037.05.085.11.143.18.06.073.111.138.151.193.134.184.199.355.194.513a.482.482 0 0 1-.22.39.448.448 0 0 1-.325.075.831.831 0 0 1-.381-.155l-.32.843a.388.388 0 0 0-.028.216c.012.07.043.15.093.24.008.013 0 .027-.02.042z" fill="#002868" fill-rule="evenodd"/>
	<path d="M-28.506-3.798c-.024.009-.04.006-.047-.008a.589.589 0 0 0-.155-.211c-.046-.03-.113-.028-.201.006l-.17.065a1.05 1.05 0 0 0-.29.148 2.722 2.722 0 0 1-.479-.733 1.301 1.301 0 0 1-.09-.622.995.995 0 0 1 .22-.524c.125-.152.285-.266.48-.341a1.084 1.084 0 0 1 1.129.208c.157.14.278.32.363.542.033.085.062.206.087.363.022.138.046.24.072.308a7.65 7.65 0 0 0-.46.253c-.016.006-.03-.007-.041-.037-.008-.02-.005-.035.009-.045.288-.207.363-.491.224-.853a.755.755 0 0 0-.495-.458 1.111 1.111 0 0 0-.767.033c-.26.1-.453.26-.578.481a.74.74 0 0 0-.061.657c.122.319.263.448.421.387l.378-.145c.052-.02.08-.06.082-.118.004-.06-.022-.188-.076-.387-.006-.016.005-.029.034-.04.027-.01.043-.007.049.008.024.064.058.159.101.286a5.188 5.188 0 0 0 .19.495c.044.098.078.18.102.244.006.015-.004.027-.031.038zm-.44 2.861c-.028.003-.043-.003-.045-.02a3.836 3.836 0 0 1-.02-.242 3.525 3.525 0 0 0-.02-.227 3.372 3.372 0 0 0-.036-.226 3.824 3.824 0 0 1-.04-.243c-.002-.016.012-.026.04-.03.025-.003.04.004.044.02a.58.58 0 0 0 .1.24c.036.041.102.056.196.044l1.431-.176a.297.297 0 0 0 .146-.045.17.17 0 0 0 .057-.101.857.857 0 0 0 .017-.201c-.002-.017.011-.026.04-.03.028-.003.043.003.045.02.008.068.015.15.02.245a3.462 3.462 0 0 0 .056.453c.018.092.031.172.04.24.001.016-.012.026-.04.03-.029.003-.044-.003-.046-.02a.86.86 0 0 0-.065-.19.174.174 0 0 0-.078-.084.316.316 0 0 0-.154-.007l-1.43.176a.316.316 0 0 0-.147.044.18.18 0 0 0-.057.1.928.928 0 0 0-.016.199c0 .017-.012.028-.038.03z" fill="#002868"/>
	<path d="m-28.155 1.942.813-.158-.735-.397-.078.555zm-1.03.79c-.029-.003-.042-.014-.04-.03.01-.07.024-.148.043-.235a2.479 2.479 0 0 0 .06-.423c.007-.097.015-.179.025-.247.002-.016.017-.022.045-.018.029.004.042.012.04.024a.536.536 0 0 0 .008.2.1.1 0 0 0 .084.071c.026.004.07 0 .13-.012l.533-.1.088-.625-.446-.239a.48.48 0 0 0-.141-.054c-.09-.012-.15.063-.18.226-.002.012-.018.016-.046.012s-.041-.014-.039-.03c.009-.061.021-.128.038-.2a1.798 1.798 0 0 0 .05-.35c.003-.07.008-.13.015-.178.002-.015.015-.021.04-.017.029.004.043.017.041.04a.375.375 0 0 0 .042.21.634.634 0 0 0 .214.185l1.644.955c.015.008.021.023.018.045-.003.025-.013.039-.03.043l-1.832.38a.473.473 0 0 0-.237.113.49.49 0 0 0-.122.23c-.005.02-.02.028-.046.025z" fill="#002868" fill-rule="evenodd"/>
	<path d="m-45.62 14.443.789.196.016-.064-.133-.098c-.077-.056-.077-.078-.032-.259l.389-1.557-.023-.04-.603.057-.016.064.165.06c.093.035.099.052.069.172l-.292 1.167c-.045.18-.054.2-.15.213l-.163.025-.016.064zm2.827.469.015-.04a.304.304 0 0 1-.031-.161c.022-.32.238-.597.472-.952.166-.253.281-.423.326-.766l-.025-.045-.998-.07-.021.023-.092.451.077.006.076-.109c.044-.06.07-.062.163-.056l.398.028c.055.004.077.024.073.07-.01.159-.1.312-.267.573-.173.277-.486.654-.504.913-.004.058.025.113.082.117l.256.018zm2.527-.065.007-.04a.303.303 0 0 1-.062-.153c-.039-.32.12-.632.282-1.025.115-.28.196-.468.173-.814l-.032-.04-.993.122-.017.027-.004.46.077-.01.054-.12c.032-.069.056-.075.148-.086l.397-.049c.055-.006.08.01.085.055.02.158-.038.325-.152.614-.117.304-.353.734-.321.992.007.058.046.106.103.099l.254-.032z" fill="#002868"/>
	<path d="M-38.154 13.204c.302-.092.475.167.565.46.099.323.013.511-.167.566-.214.066-.47-.087-.617-.566-.052-.171-.044-.248-.024-.286a.405.405 0 0 1 .243-.174zm.319-1.038c-.684.233-1.01.9-.833 1.48.183.598.557.78.894.677.508-.155.472-.64.408-.848-.117-.382-.406-.53-.708-.438-.16.049-.21.101-.338.243a1.036 1.036 0 0 1 .596-1.07l-.02-.044z" fill="#002868" fill-rule="evenodd"/>
	<path fill="#002868" d="m-35.25.186-.193.037-.11-.565-.177.62-.109.022-.378-.513.11.565-.146.028-.192-.984.157-.03.49.649.219-.787.138-.026.191.984"/>
	<path d="m-34.554-.17.005-.027a.916.916 0 0 0 .018-.276c-.01-.062-.052-.1-.127-.113-.07-.012-.12.006-.152.054a.81.81 0 0 0-.083.275l-.004.024a.87.87 0 0 0-.02.285c.012.054.055.087.129.1a.136.136 0 0 0 .145-.058.661.661 0 0 0 .09-.264m.21.05c-.028.157-.084.27-.169.339a.357.357 0 0 1-.301.073.356.356 0 0 1-.257-.171c-.056-.095-.07-.219-.044-.372l.01-.057a.588.588 0 0 1 .161-.332.344.344 0 0 1 .315-.085.328.328 0 0 1 .26.188.607.607 0 0 1 .034.365l-.01.053zm.672.293.012-.024a.48.48 0 0 0 .066-.249.167.167 0 0 0-.092-.145l-.072-.036-.32.627.088.045a.154.154 0 0 0 .155 0c.048-.028.103-.1.163-.218m.19.104c-.075.145-.157.239-.248.281-.09.042-.188.037-.295-.018l-.312-.158.456-.894.28.142c.127.065.198.15.214.255a.592.592 0 0 1-.077.356l-.019.036z" fill="#002868" fill-rule="evenodd"/>
	<path fill="#002868" d="M-33.176 1.211-33.62.8l.684-.734.424.396-.102.109-.267-.249-.184.197.208.193-.104.111-.207-.193-.193.207.286.266-.102.11"/>
	<path d="m-32.27 1.267.024-.014c.036-.023.057-.049.061-.077.004-.029-.005-.061-.028-.097l-.037-.06-.225.14.03.05c.028.043.055.069.084.077.028.008.058.002.091-.019m-.478.579-.112-.18a1.05 1.05 0 0 0 .27-.221c.045-.06.051-.115.02-.166l-.028-.043-.382.239-.114-.182.851-.532.2.319c.048.077.064.143.049.197a.218.218 0 0 1-.1.13l-.046.029a.19.19 0 0 1-.143.03.23.23 0 0 1-.132-.094.273.273 0 0 1-.043.226c-.048.075-.145.157-.29.248zm-2.764.976.122-.367-.306.234.184.133m.045.51-.178-.13.085-.236-.255-.185-.2.153-.141-.103.85-.623.161.118-.322 1.005z" fill="#002868" fill-rule="evenodd"/>
	<path fill="#002868" d="m-34.35 2.916-.186-.091-.374.766-.193-.094.374-.766-.19-.093.065-.135.57.278-.065.135m.069.942-.199-.084.393-.923.197.084-.392.923"/>
	<path d="m-33.32 3.75.01-.024a.903.903 0 0 0 .085-.264c.006-.063-.026-.11-.096-.14-.064-.03-.118-.024-.16.015a.815.815 0 0 0-.148.247l-.01.022a.871.871 0 0 0-.087.272c-.002.055.031.098.1.129a.139.139 0 0 0 .156-.022.655.655 0 0 0 .15-.234m.191.1c-.064.144-.146.24-.245.287a.357.357 0 0 1-.31-.002.355.355 0 0 1-.207-.228c-.032-.106-.016-.23.047-.372l.023-.052a.589.589 0 0 1 .237-.284.344.344 0 0 1 .326-.006.327.327 0 0 1 .206.245.6.6 0 0 1-.055.363l-.022.049z" fill="#002868" fill-rule="evenodd"/>
	<path fill="#002868" d="m-32.53 4.705-.08-.046-.098-.784-.315.545-.132-.076.501-.868.1.057.096.74.297-.513.133.076-.502.869m-16.881-5.14.29.995-.133.08-.508-.456.161.664-.133.08-.743-.723.186-.112.47.46-.166-.642.13-.079.491.447-.194-.625.149-.089m.847.823-.206.063-.293-.96.205-.062.294.959m.797-.448c.014.106-.008.188-.068.248a.46.46 0 0 1-.268.114c-.068.01-.126.013-.173.012a.567.567 0 0 1-.12-.016l-.025-.17a.624.624 0 0 0 .27.025c.07-.01.117-.027.14-.05.023-.022.032-.056.026-.101a.117.117 0 0 0-.04-.073.502.502 0 0 0-.172-.066.425.425 0 0 1-.179-.091.291.291 0 0 1-.084-.182.247.247 0 0 1 .066-.206.388.388 0 0 1 .245-.115.68.68 0 0 1 .238.005l.021.15A1.88 1.88 0 0 0-48-.583a.594.594 0 0 0-.115.005c-.057.008-.096.023-.119.045a.084.084 0 0 0-.027.074c.005.035.018.06.039.076.021.015.08.034.176.056.09.02.156.054.2.099a.3.3 0 0 1 .079.17m3.727-.305a.245.245 0 0 1-.134.127c-.059.023-.127.015-.206-.023a.578.578 0 0 1-.106-.063.26.26 0 0 1-.056-.06l.068-.137a.415.415 0 0 0 .12.091.105.105 0 0 0 .07.01c.023-.006.043-.024.059-.056l.329-.675.193.094-.338.692m1.013.282a.295.295 0 0 1-.14.19c-.068.036-.158.038-.27.006-.119-.034-.196-.086-.233-.156-.036-.07-.04-.159-.008-.267l.186-.648.206.06-.193.674c-.015.052-.015.095 0 .127.015.033.05.057.105.073.052.014.093.014.125-.003.031-.016.056-.054.073-.115l.193-.67.153.043-.197.686m.931.126c-.013.105-.056.18-.13.222a.46.46 0 0 1-.287.04 1.014 1.014 0 0 1-.171-.033.559.559 0 0 1-.113-.046l.022-.172a.616.616 0 0 0 .255.094c.07.01.118.005.146-.01.029-.017.046-.047.052-.092a.117.117 0 0 0-.019-.08.505.505 0 0 0-.15-.11.422.422 0 0 1-.149-.134.291.291 0 0 1-.034-.197.247.247 0 0 1 .117-.182.389.389 0 0 1 .267-.048.69.69 0 0 1 .228.066l-.019.152a1.962 1.962 0 0 0-.104-.037.591.591 0 0 0-.112-.025c-.057-.007-.099-.003-.126.013a.084.084 0 0 0-.046.064c-.005.035.001.063.018.084.017.02.068.053.156.1a.389.389 0 0 1 .166.146c.03.054.041.116.033.185m.864-.54h-.207v.853h-.215v-.853h-.212v-.15h.634v.15m.567.777-.212.03-.14-.993.213-.03.14.993m1.012-.268a.261.261 0 0 1-.07.05.553.553 0 0 1-.125.051.42.42 0 0 1-.337-.033c-.1-.058-.173-.165-.218-.32l-.01-.04a.521.521 0 0 1 .017-.382.4.4 0 0 1 .26-.217.749.749 0 0 1 .132-.027.284.284 0 0 1 .087.001l.044.153a.317.317 0 0 0-.078-.006.453.453 0 0 0-.108.019.21.21 0 0 0-.149.141.458.458 0 0 0 .01.27l.004.014a.464.464 0 0 0 .131.238.194.194 0 0 0 .184.036.443.443 0 0 0 .183-.097l.043.149m.889-.377-.54.275-.455-.894.517-.263.068.133-.326.166.123.24.252-.129.07.135-.254.129.13.252.347-.177.068.133"/>
	<path d="m-50.13 3.769-.011-.026a.48.48 0 0 0-.149-.21.167.167 0 0 0-.17-.022l-.074.031.275.648.091-.039a.154.154 0 0 0 .1-.118c.01-.055-.011-.143-.063-.264m.202-.079c.063.15.082.273.056.37-.025.096-.093.168-.203.215l-.322.136-.392-.923.288-.122c.132-.056.243-.056.334 0 .09.054.165.15.223.287l.016.037zm.702-.304-.01-.025a.925.925 0 0 0-.136-.241c-.042-.047-.098-.056-.168-.026-.065.027-.098.07-.098.128 0 .058.026.15.08.275l.01.023c.053.127.1.21.139.249.039.04.093.044.162.015a.138.138 0 0 0 .09-.128.659.659 0 0 0-.069-.27m.204-.072c.062.146.076.27.043.375a.357.357 0 0 1-.213.225.357.357 0 0 1-.308-.004c-.1-.048-.179-.144-.24-.288l-.022-.052a.588.588 0 0 1-.047-.367.344.344 0 0 1 .218-.242.328.328 0 0 1 .32.016c.096.06.172.156.228.288l.021.049z" fill="#002868" fill-rule="evenodd"/>
	<path fill="#002868" d="m-47.692 3.331-.185.068-.197-.541-.078.64-.104.038-.454-.447.197.54-.14.052-.343-.942.15-.055.586.564.092-.81.133-.049.343.942"/>
</svg>
