<?xml version="1.0" encoding="UTF-8" standalone="no"?>
<!-- Created with Inkscape (http://www.inkscape.org/) -->

<svg
   width="48"
   height="48"
   viewBox="0 0 12.7 12.7"
   version="1.1"
   id="svg1"
   inkscape:version="1.3.2 (091e20e, 2023-11-25, custom)"
   sodipodi:docname="transform_view.svg"
   xmlns:inkscape="http://www.inkscape.org/namespaces/inkscape"
   xmlns:sodipodi="http://sodipodi.sourceforge.net/DTD/sodipodi-0.dtd"
   xmlns="http://www.w3.org/2000/svg"
   xmlns:svg="http://www.w3.org/2000/svg">
  <sodipodi:namedview
     id="namedview1"
     pagecolor="#ffffff"
     bordercolor="#000000"
     borderopacity="0.25"
     inkscape:showpageshadow="2"
     inkscape:pageopacity="0.0"
     inkscape:pagecheckerboard="0"
     inkscape:deskcolor="#d1d1d1"
     inkscape:document-units="mm"
     inkscape:zoom="11.588215"
     inkscape:cx="23.256386"
     inkscape:cy="27.657409"
     inkscape:window-width="1920"
     inkscape:window-height="1009"
     inkscape:window-x="-8"
     inkscape:window-y="-8"
     inkscape:window-maximized="1"
     inkscape:current-layer="layer1" />
  <defs
     id="defs1">
    <inkscape:path-effect
       effect="bspline"
       id="path-effect9"
       is_visible="true"
       lpeversion="1.3"
       weight="33.333333"
       steps="2"
       helper_size="0"
       apply_no_weight="true"
       apply_with_weight="true"
       only_selected="false"
       uniform="false" />
    <inkscape:path-effect
       effect="bspline"
       id="path-effect7"
       is_visible="true"
       lpeversion="1.3"
       weight="33.333333"
       steps="2"
       helper_size="0"
       apply_no_weight="true"
       apply_with_weight="true"
       only_selected="false"
       uniform="false" />
    <inkscape:path-effect
       effect="bspline"
       id="path-effect5"
       is_visible="true"
       lpeversion="1.3"
       weight="33.333333"
       steps="2"
       helper_size="0"
       apply_no_weight="true"
       apply_with_weight="true"
       only_selected="false"
       uniform="false" />
    <inkscape:path-effect
       effect="bspline"
       id="path-effect3"
       is_visible="true"
       lpeversion="1.3"
       weight="33.333333"
       steps="2"
       helper_size="0"
       apply_no_weight="true"
       apply_with_weight="true"
       only_selected="false"
       uniform="false" />
    <inkscape:path-effect
       effect="bspline"
       id="path-effect1"
       is_visible="true"
       lpeversion="1.3"
       weight="33.333333"
       steps="2"
       helper_size="0"
       apply_no_weight="true"
       apply_with_weight="true"
       only_selected="false"
       uniform="false" />
    <inkscape:path-effect
       effect="bspline"
       id="path-effect1-0"
       is_visible="true"
       lpeversion="1.3"
       weight="33.333333"
       steps="2"
       helper_size="0"
       apply_no_weight="true"
       apply_with_weight="true"
       only_selected="false"
       uniform="false" />
    <inkscape:path-effect
       effect="bspline"
       id="path-effect1-0-4"
       is_visible="true"
       lpeversion="1.3"
       weight="33.333333"
       steps="2"
       helper_size="0"
       apply_no_weight="true"
       apply_with_weight="true"
       only_selected="false"
       uniform="false" />
  </defs>
  <g
     inkscape:label="Layer 1"
     inkscape:groupmode="layer"
     id="layer1">
    <path
       style="fill:none;stroke:#494949;stroke-width:0.1;stroke-linecap:round;stroke-linejoin:round;stroke-opacity:1"
       d="M 0.79912365,9.5209875 C 1.2557657,9.5133772 1.7124078,9.5057669 2.1005568,9.2469982 2.4887057,8.9882294 2.8083489,8.4783225 3.1584448,8.2157533 3.5085408,7.953184 3.8890683,7.9379629 4.1364173,8.0330989 4.3837664,8.1282348 4.4979245,8.3337195 4.6044752,8.3984098 4.7110259,8.4631001 4.8099633,8.3869944 4.8898764,8.348941 4.9697894,8.3108875 5.0306737,8.3108875 5.110587,8.4745208 5.1905004,8.6381541 5.2894375,8.9654077 5.7955583,9.140454 6.3016791,9.3155004 7.2149448,9.3383319 7.7172519,9.3497479 8.219559,9.3611639 8.310886,9.3611639 8.3946044,8.9692048 8.4783228,8.5772458 8.5544282,7.7933592 8.6343412,7.3976029 8.7142542,7.0018466 8.7979707,6.9942363 8.8436349,7.2263675 c 0.045664,0.2321312 0.053274,0.7039854 0.079912,0.9323064 0.026638,0.2283209 0.072302,0.2130997 0.095133,0.049467 0.022832,-0.1636331 0.022832,-0.4756658 0.04947,-0.6316852 0.026638,-0.1560193 0.079912,-0.1560193 0.1255763,0.087528 0.045665,0.2435474 0.083717,0.7306226 0.1598255,0.9741651 0.076108,0.2435424 0.1902664,0.2435424 0.2854011,0.2397371 0.095135,-0.00381 0.1712399,-0.011415 0.232126,-0.091329 0.060886,-0.079914 0.1065495,-0.2321246 0.1560218,-0.3044261 0.04947,-0.072302 0.102741,-0.064692 0.159822,0.053276 0.05708,0.1179684 0.117965,0.3462845 0.182658,0.4528337 0.06469,0.1065493 0.133186,0.091329 0.186459,0.083718 0.05327,-0.00761 0.09133,-0.00761 0.121775,-0.060886 0.03044,-0.053276 0.05327,-0.1598227 0.08752,-0.2092935 0.03425,-0.049471 0.07992,-0.041859 0.11797,0.022832 0.03805,0.064692 0.0685,0.1864618 0.136994,0.2701796 0.0685,0.083718 0.175046,0.1293813 0.247347,0.1750447 0.0723,0.045663 0.110357,0.091331 0.258767,0.1103568 0.148411,0.019026 0.40717,0.011416 0.665933,0.00381"
       id="path1"
       inkscape:path-effect="#path-effect1"
       inkscape:original-d="M 0.79912365,9.5209875 C 1.2557657,9.5133781 1.7124078,9.505766 2.1690499,9.4981566 2.4887057,8.9882294 2.8083488,8.4783225 3.1279983,7.9684056 c 0.3805425,-0.015221 0.76107,-0.030443 1.1416051,-0.045664 0.114163,0.2054932 0.2283211,0.4109779 0.3424817,0.6164668 0.098941,-0.076108 0.1978782,-0.152214 0.2968173,-0.2283209 0.060887,0 0.1217713,0 0.1826569,0 0.098941,0.3272666 0.1978782,0.6545202 0.2968173,0.9817804 0.9133025,0.022833 1.8265682,0.045664 2.7398524,0.068496 0.09133,0 0.182657,0 0.2739853,0 0.076109,-0.7839181 0.152214,-1.5678047 0.2283209,-2.3517069 0.083719,-0.00761 0.1674355,-0.015221 0.2511533,-0.022831 0.00761,0.4718727 0.015222,0.9437269 0.022831,1.4155904 0.045665,-0.015222 0.091329,-0.030443 0.1369928,-0.045664 0,-0.312045 0,-0.6240777 0,-0.9361164 0.053276,0 0.1065498,0 0.1598247,0 0.038054,0.4870947 0.076107,0.9741699 0.1141603,1.4612548 0.114163,0 0.2283212,0 0.3424817,0 0.076109,-0.00761 0.152214,-0.015222 0.2283212,-0.022831 0.045665,-0.1522169 0.091328,-0.304428 0.1369928,-0.456642 0.05328,0.00761 0.106549,0.015222 0.159824,0.022831 0.06089,0.2283256 0.121772,0.4566423 0.182657,0.6849631 0.0685,-0.015221 0.136993,-0.030443 0.205489,-0.045664 0.03805,0 0.07611,0 0.114161,0 0.02283,-0.106552 0.04566,-0.2130997 0.0685,-0.3196495 0.04566,0.00761 0.09133,0.015221 0.136993,0.022831 0.03044,0.1217737 0.06089,0.2435423 0.09133,0.3653136 0.106552,0.045665 0.2131,0.091328 0.319649,0.1369926 0.03805,0.045665 0.07611,0.091329 0.114161,0.1369927 0.258769,-0.00761 0.517528,-0.015221 0.776291,-0.022831"
       transform="matrix(0.88228861,0,0,1.0024214,0.03905674,-0.56472341)" />
    <path
       style="fill:none;stroke:#494949;stroke-width:0.1;stroke-linecap:round;stroke-linejoin:round;stroke-opacity:1"
       d="M 0.79912365,9.5209875 C 1.2557657,9.5133772 1.7124078,9.5057669 2.1005568,9.2469982 2.4887057,8.9882294 2.8083489,8.4783225 3.1584448,8.2157533 3.5085408,7.953184 3.8890683,7.9379629 4.1364173,8.0330989 4.3837664,8.1282348 4.4979245,8.3337195 4.6044752,8.3984098 4.7110259,8.4631001 4.8099633,8.3869944 4.8898764,8.348941 4.9697894,8.3108875 5.0306737,8.3108875 5.110587,8.4745208 5.1905004,8.6381541 5.2894375,8.9654077 5.7955583,9.140454 6.3016791,9.3155004 7.2149448,9.3383319 7.7172519,9.3497479 8.219559,9.3611639 8.310886,9.3611639 8.3946044,8.9692048 8.4783228,8.5772458 8.5544282,7.7933592 8.6343412,7.3976029 8.7142542,7.0018466 8.7979707,6.9942363 8.8436349,7.2263675 c 0.045664,0.2321312 0.053274,0.7039854 0.079912,0.9323064 0.026638,0.2283209 0.072302,0.2130997 0.095133,0.049467 0.022832,-0.1636331 0.022832,-0.4756658 0.04947,-0.6316852 0.026638,-0.1560193 0.079912,-0.1560193 0.1255763,0.087528 0.045665,0.2435474 0.083717,0.7306226 0.1598255,0.9741651 0.076108,0.2435424 0.1902664,0.2435424 0.2854011,0.2397371 0.095135,-0.00381 0.1712399,-0.011415 0.232126,-0.091329 0.060886,-0.079914 0.1065495,-0.2321246 0.1560218,-0.3044261 0.04947,-0.072302 0.102741,-0.064692 0.159822,0.053276 0.05708,0.1179684 0.117965,0.3462845 0.182658,0.4528337 0.06469,0.1065493 0.133186,0.091329 0.186459,0.083718 0.05327,-0.00761 0.09133,-0.00761 0.121775,-0.060886 0.03044,-0.053276 0.05327,-0.1598227 0.08752,-0.2092935 0.03425,-0.049471 0.07992,-0.041859 0.11797,0.022832 0.03805,0.064692 0.0685,0.1864618 0.136994,0.2701796 0.0685,0.083718 0.175046,0.1293813 0.247347,0.1750447 0.0723,0.045663 0.110357,0.091331 0.258767,0.1103568 0.148411,0.019026 0.40717,0.011416 0.665933,0.00381"
       id="path1-8"
       inkscape:path-effect="#path-effect1-0"
       inkscape:original-d="M 0.79912365,9.5209875 C 1.2557657,9.5133781 1.7124078,9.505766 2.1690499,9.4981566 2.4887057,8.9882294 2.8083488,8.4783225 3.1279983,7.9684056 c 0.3805425,-0.015221 0.76107,-0.030443 1.1416051,-0.045664 0.114163,0.2054932 0.2283211,0.4109779 0.3424817,0.6164668 0.098941,-0.076108 0.1978782,-0.152214 0.2968173,-0.2283209 0.060887,0 0.1217713,0 0.1826569,0 0.098941,0.3272666 0.1978782,0.6545202 0.2968173,0.9817804 0.9133025,0.022833 1.8265682,0.045664 2.7398524,0.068496 0.09133,0 0.182657,0 0.2739853,0 0.076109,-0.7839181 0.152214,-1.5678047 0.2283209,-2.3517069 0.083719,-0.00761 0.1674355,-0.015221 0.2511533,-0.022831 0.00761,0.4718727 0.015222,0.9437269 0.022831,1.4155904 0.045665,-0.015222 0.091329,-0.030443 0.1369928,-0.045664 0,-0.312045 0,-0.6240777 0,-0.9361164 0.053276,0 0.1065498,0 0.1598247,0 0.038054,0.4870947 0.076107,0.9741699 0.1141603,1.4612548 0.114163,0 0.2283212,0 0.3424817,0 0.076109,-0.00761 0.152214,-0.015222 0.2283212,-0.022831 0.045665,-0.1522169 0.091328,-0.304428 0.1369928,-0.456642 0.05328,0.00761 0.106549,0.015222 0.159824,0.022831 0.06089,0.2283256 0.121772,0.4566423 0.182657,0.6849631 0.0685,-0.015221 0.136993,-0.030443 0.205489,-0.045664 0.03805,0 0.07611,0 0.114161,0 0.02283,-0.106552 0.04566,-0.2130997 0.0685,-0.3196495 0.04566,0.00761 0.09133,0.015221 0.136993,0.022831 0.03044,0.1217737 0.06089,0.2435423 0.09133,0.3653136 0.106552,0.045665 0.2131,0.091328 0.319649,0.1369926 0.03805,0.045665 0.07611,0.091329 0.114161,0.1369927 0.258769,-0.00761 0.517528,-0.015221 0.776291,-0.022831"
       transform="matrix(0.88228861,0,0,1.0024214,0.23905674,-1.0647234)" />
    <path
       style="fill:none;stroke:#494949;stroke-width:0.1;stroke-linecap:round;stroke-linejoin:round;stroke-opacity:1"
       d="M 0.79912365,9.5209875 C 1.2557657,9.5133772 1.7124078,9.5057669 2.1005568,9.2469982 2.4887057,8.9882294 2.8083489,8.4783225 3.1584448,8.2157533 3.5085408,7.953184 3.8890683,7.9379629 4.1364173,8.0330989 4.3837664,8.1282348 4.4979245,8.3337195 4.6044752,8.3984098 4.7110259,8.4631001 4.8099633,8.3869944 4.8898764,8.348941 4.9697894,8.3108875 5.0306737,8.3108875 5.110587,8.4745208 5.1905004,8.6381541 5.2894375,8.9654077 5.7955583,9.140454 6.3016791,9.3155004 7.2149448,9.3383319 7.7172519,9.3497479 8.219559,9.3611639 8.310886,9.3611639 8.3946044,8.9692048 8.4783228,8.5772458 8.5544282,7.7933592 8.6343412,7.3976029 8.7142542,7.0018466 8.7979707,6.9942363 8.8436349,7.2263675 c 0.045664,0.2321312 0.053274,0.7039854 0.079912,0.9323064 0.026638,0.2283209 0.072302,0.2130997 0.095133,0.049467 0.022832,-0.1636331 0.022832,-0.4756658 0.04947,-0.6316852 0.026638,-0.1560193 0.079912,-0.1560193 0.1255763,0.087528 0.045665,0.2435474 0.083717,0.7306226 0.1598255,0.9741651 0.076108,0.2435424 0.1902664,0.2435424 0.2854011,0.2397371 0.095135,-0.00381 0.1712399,-0.011415 0.232126,-0.091329 0.060886,-0.079914 0.1065495,-0.2321246 0.1560218,-0.3044261 0.04947,-0.072302 0.102741,-0.064692 0.159822,0.053276 0.05708,0.1179684 0.117965,0.3462845 0.182658,0.4528337 0.06469,0.1065493 0.133186,0.091329 0.186459,0.083718 0.05327,-0.00761 0.09133,-0.00761 0.121775,-0.060886 0.03044,-0.053276 0.05327,-0.1598227 0.08752,-0.2092935 0.03425,-0.049471 0.07992,-0.041859 0.11797,0.022832 0.03805,0.064692 0.0685,0.1864618 0.136994,0.2701796 0.0685,0.083718 0.175046,0.1293813 0.247347,0.1750447 0.0723,0.045663 0.110357,0.091331 0.258767,0.1103568 0.148411,0.019026 0.40717,0.011416 0.665933,0.00381"
       id="path1-8-9"
       inkscape:path-effect="#path-effect1-0-4"
       inkscape:original-d="M 0.79912365,9.5209875 C 1.2557657,9.5133781 1.7124078,9.505766 2.1690499,9.4981566 2.4887057,8.9882294 2.8083488,8.4783225 3.1279983,7.9684056 c 0.3805425,-0.015221 0.76107,-0.030443 1.1416051,-0.045664 0.114163,0.2054932 0.2283211,0.4109779 0.3424817,0.6164668 0.098941,-0.076108 0.1978782,-0.152214 0.2968173,-0.2283209 0.060887,0 0.1217713,0 0.1826569,0 0.098941,0.3272666 0.1978782,0.6545202 0.2968173,0.9817804 0.9133025,0.022833 1.8265682,0.045664 2.7398524,0.068496 0.09133,0 0.182657,0 0.2739853,0 0.076109,-0.7839181 0.152214,-1.5678047 0.2283209,-2.3517069 0.083719,-0.00761 0.1674355,-0.015221 0.2511533,-0.022831 0.00761,0.4718727 0.015222,0.9437269 0.022831,1.4155904 0.045665,-0.015222 0.091329,-0.030443 0.1369928,-0.045664 0,-0.312045 0,-0.6240777 0,-0.9361164 0.053276,0 0.1065498,0 0.1598247,0 0.038054,0.4870947 0.076107,0.9741699 0.1141603,1.4612548 0.114163,0 0.2283212,0 0.3424817,0 0.076109,-0.00761 0.152214,-0.015222 0.2283212,-0.022831 0.045665,-0.1522169 0.091328,-0.304428 0.1369928,-0.456642 0.05328,0.00761 0.106549,0.015222 0.159824,0.022831 0.06089,0.2283256 0.121772,0.4566423 0.182657,0.6849631 0.0685,-0.015221 0.136993,-0.030443 0.205489,-0.045664 0.03805,0 0.07611,0 0.114161,0 0.02283,-0.106552 0.04566,-0.2130997 0.0685,-0.3196495 0.04566,0.00761 0.09133,0.015221 0.136993,0.022831 0.03044,0.1217737 0.06089,0.2435423 0.09133,0.3653136 0.106552,0.045665 0.2131,0.091328 0.319649,0.1369926 0.03805,0.045665 0.07611,0.091329 0.114161,0.1369927 0.258769,-0.00761 0.517528,-0.015221 0.776291,-0.022831"
       transform="matrix(0.88228861,0,0,1.0024214,0.43905674,-1.5647234)" />
    <path
       style="fill:none;stroke:#494949;stroke-width:0.1;stroke-linecap:round;stroke-linejoin:round;stroke-opacity:1"
       d="M 0.79912365,9.5209875 C 1.2557657,9.5133772 1.7124078,9.5057669 2.1005568,9.2469982 2.4887057,8.9882294 2.8083489,8.4783225 3.1584448,8.2157533 3.5085408,7.953184 3.8890683,7.9379629 4.1364173,8.0330989 4.3837664,8.1282348 4.4979245,8.3337195 4.6044752,8.3984098 4.7110259,8.4631001 4.8099633,8.3869944 4.8898764,8.348941 4.9697894,8.3108875 5.0306737,8.3108875 5.110587,8.4745208 5.1905004,8.6381541 5.2894375,8.9654077 5.7955583,9.140454 6.3016791,9.3155004 7.2149448,9.3383319 7.7172519,9.3497479 8.219559,9.3611639 8.310886,9.3611639 8.3946044,8.9692048 8.4783228,8.5772458 8.5544282,7.7933592 8.6343412,7.3976029 8.7142542,7.0018466 8.7979707,6.9942363 8.8436349,7.2263675 c 0.045664,0.2321312 0.053274,0.7039854 0.079912,0.9323064 0.026638,0.2283209 0.072302,0.2130997 0.095133,0.049467 0.022832,-0.1636331 0.022832,-0.4756658 0.04947,-0.6316852 0.026638,-0.1560193 0.079912,-0.1560193 0.1255763,0.087528 0.045665,0.2435474 0.083717,0.7306226 0.1598255,0.9741651 0.076108,0.2435424 0.1902664,0.2435424 0.2854011,0.2397371 0.095135,-0.00381 0.1712399,-0.011415 0.232126,-0.091329 0.060886,-0.079914 0.1065495,-0.2321246 0.1560218,-0.3044261 0.04947,-0.072302 0.102741,-0.064692 0.159822,0.053276 0.05708,0.1179684 0.117965,0.3462845 0.182658,0.4528337 0.06469,0.1065493 0.133186,0.091329 0.186459,0.083718 0.05327,-0.00761 0.09133,-0.00761 0.121775,-0.060886 0.03044,-0.053276 0.05327,-0.1598227 0.08752,-0.2092935 0.03425,-0.049471 0.07992,-0.041859 0.11797,0.022832 0.03805,0.064692 0.0685,0.1864618 0.136994,0.2701796 0.0685,0.083718 0.175046,0.1293813 0.247347,0.1750447 0.0723,0.045663 0.110357,0.091331 0.258767,0.1103568 0.148411,0.019026 0.40717,0.011416 0.665933,0.00381"
       id="path2"
       inkscape:path-effect="#path-effect3"
       inkscape:original-d="M 0.79912365,9.5209875 C 1.2557657,9.5133781 1.7124078,9.505766 2.1690499,9.4981566 2.4887057,8.9882294 2.8083488,8.4783225 3.1279983,7.9684056 c 0.3805425,-0.015221 0.76107,-0.030443 1.1416051,-0.045664 0.114163,0.2054932 0.2283211,0.4109779 0.3424817,0.6164668 0.098941,-0.076108 0.1978782,-0.152214 0.2968173,-0.2283209 0.060887,0 0.1217713,0 0.1826569,0 0.098941,0.3272666 0.1978782,0.6545202 0.2968173,0.9817804 0.9133025,0.022833 1.8265682,0.045664 2.7398524,0.068496 0.09133,0 0.182657,0 0.2739853,0 0.076109,-0.7839181 0.152214,-1.5678047 0.2283209,-2.3517069 0.083719,-0.00761 0.1674355,-0.015221 0.2511533,-0.022831 0.00761,0.4718727 0.015222,0.9437269 0.022831,1.4155904 0.045665,-0.015222 0.091329,-0.030443 0.1369928,-0.045664 0,-0.312045 0,-0.6240777 0,-0.9361164 0.053276,0 0.1065498,0 0.1598247,0 0.038054,0.4870947 0.076107,0.9741699 0.1141603,1.4612548 0.114163,0 0.2283212,0 0.3424817,0 0.076109,-0.00761 0.152214,-0.015222 0.2283212,-0.022831 0.045665,-0.1522169 0.091328,-0.304428 0.1369928,-0.456642 0.05328,0.00761 0.106549,0.015222 0.159824,0.022831 0.06089,0.2283256 0.121772,0.4566423 0.182657,0.6849631 0.0685,-0.015221 0.136993,-0.030443 0.205489,-0.045664 0.03805,0 0.07611,0 0.114161,0 0.02283,-0.106552 0.04566,-0.2130997 0.0685,-0.3196495 0.04566,0.00761 0.09133,0.015221 0.136993,0.022831 0.03044,0.1217737 0.06089,0.2435423 0.09133,0.3653136 0.106552,0.045665 0.2131,0.091328 0.319649,0.1369926 0.03805,0.045665 0.07611,0.091329 0.114161,0.1369927 0.258769,-0.00761 0.517528,-0.015221 0.776291,-0.022831"
       transform="matrix(0.88228861,0,0,1.0024214,0.63905674,-2.0647234)" />
    <path
       style="fill:none;stroke:#494949;stroke-width:0.1;stroke-linecap:round;stroke-linejoin:round;stroke-opacity:1"
       d="M 0.79912365,9.5209875 C 1.2557657,9.5133772 1.7124078,9.5057669 2.1005568,9.2469982 2.4887057,8.9882294 2.8083489,8.4783225 3.1584448,8.2157533 3.5085408,7.953184 3.8890683,7.9379629 4.1364173,8.0330989 4.3837664,8.1282348 4.4979245,8.3337195 4.6044752,8.3984098 4.7110259,8.4631001 4.8099633,8.3869944 4.8898764,8.348941 4.9697894,8.3108875 5.0306737,8.3108875 5.110587,8.4745208 5.1905004,8.6381541 5.2894375,8.9654077 5.7955583,9.140454 6.3016791,9.3155004 7.2149448,9.3383319 7.7172519,9.3497479 8.219559,9.3611639 8.310886,9.3611639 8.3946044,8.9692048 8.4783228,8.5772458 8.5544282,7.7933592 8.6343412,7.3976029 8.7142542,7.0018466 8.7979707,6.9942363 8.8436349,7.2263675 c 0.045664,0.2321312 0.053274,0.7039854 0.079912,0.9323064 0.026638,0.2283209 0.072302,0.2130997 0.095133,0.049467 0.022832,-0.1636331 0.022832,-0.4756658 0.04947,-0.6316852 0.026638,-0.1560193 0.079912,-0.1560193 0.1255763,0.087528 0.045665,0.2435474 0.083717,0.7306226 0.1598255,0.9741651 0.076108,0.2435424 0.1902664,0.2435424 0.2854011,0.2397371 0.095135,-0.00381 0.1712399,-0.011415 0.232126,-0.091329 0.060886,-0.079914 0.1065495,-0.2321246 0.1560218,-0.3044261 0.04947,-0.072302 0.102741,-0.064692 0.159822,0.053276 0.05708,0.1179684 0.117965,0.3462845 0.182658,0.4528337 0.06469,0.1065493 0.133186,0.091329 0.186459,0.083718 0.05327,-0.00761 0.09133,-0.00761 0.121775,-0.060886 0.03044,-0.053276 0.05327,-0.1598227 0.08752,-0.2092935 0.03425,-0.049471 0.07992,-0.041859 0.11797,0.022832 0.03805,0.064692 0.0685,0.1864618 0.136994,0.2701796 0.0685,0.083718 0.175046,0.1293813 0.247347,0.1750447 0.0723,0.045663 0.110357,0.091331 0.258767,0.1103568 0.148411,0.019026 0.40717,0.011416 0.665933,0.00381"
       id="path3"
       inkscape:path-effect="#path-effect5"
       inkscape:original-d="M 0.79912365,9.5209875 C 1.2557657,9.5133781 1.7124078,9.505766 2.1690499,9.4981566 2.4887057,8.9882294 2.8083488,8.4783225 3.1279983,7.9684056 c 0.3805425,-0.015221 0.76107,-0.030443 1.1416051,-0.045664 0.114163,0.2054932 0.2283211,0.4109779 0.3424817,0.6164668 0.098941,-0.076108 0.1978782,-0.152214 0.2968173,-0.2283209 0.060887,0 0.1217713,0 0.1826569,0 0.098941,0.3272666 0.1978782,0.6545202 0.2968173,0.9817804 0.9133025,0.022833 1.8265682,0.045664 2.7398524,0.068496 0.09133,0 0.182657,0 0.2739853,0 0.076109,-0.7839181 0.152214,-1.5678047 0.2283209,-2.3517069 0.083719,-0.00761 0.1674355,-0.015221 0.2511533,-0.022831 0.00761,0.4718727 0.015222,0.9437269 0.022831,1.4155904 0.045665,-0.015222 0.091329,-0.030443 0.1369928,-0.045664 0,-0.312045 0,-0.6240777 0,-0.9361164 0.053276,0 0.1065498,0 0.1598247,0 0.038054,0.4870947 0.076107,0.9741699 0.1141603,1.4612548 0.114163,0 0.2283212,0 0.3424817,0 0.076109,-0.00761 0.152214,-0.015222 0.2283212,-0.022831 0.045665,-0.1522169 0.091328,-0.304428 0.1369928,-0.456642 0.05328,0.00761 0.106549,0.015222 0.159824,0.022831 0.06089,0.2283256 0.121772,0.4566423 0.182657,0.6849631 0.0685,-0.015221 0.136993,-0.030443 0.205489,-0.045664 0.03805,0 0.07611,0 0.114161,0 0.02283,-0.106552 0.04566,-0.2130997 0.0685,-0.3196495 0.04566,0.00761 0.09133,0.015221 0.136993,0.022831 0.03044,0.1217737 0.06089,0.2435423 0.09133,0.3653136 0.106552,0.045665 0.2131,0.091328 0.319649,0.1369926 0.03805,0.045665 0.07611,0.091329 0.114161,0.1369927 0.258769,-0.00761 0.517528,-0.015221 0.776291,-0.022831"
       transform="matrix(0.88228861,0,0,1.0024214,0.83905674,-2.5647234)" />
    <path
       style="fill:none;stroke:#494949;stroke-width:0.1;stroke-linecap:round;stroke-linejoin:round;stroke-opacity:1"
       d="M 0.79912365,9.5209875 C 1.2557657,9.5133772 1.7124078,9.5057669 2.1005568,9.2469982 2.4887057,8.9882294 2.8083489,8.4783225 3.1584448,8.2157533 3.5085408,7.953184 3.8890683,7.9379629 4.1364173,8.0330989 4.3837664,8.1282348 4.4979245,8.3337195 4.6044752,8.3984098 4.7110259,8.4631001 4.8099633,8.3869944 4.8898764,8.348941 4.9697894,8.3108875 5.0306737,8.3108875 5.110587,8.4745208 5.1905004,8.6381541 5.2894375,8.9654077 5.7955583,9.140454 6.3016791,9.3155004 7.2149448,9.3383319 7.7172519,9.3497479 8.219559,9.3611639 8.310886,9.3611639 8.3946044,8.9692048 8.4783228,8.5772458 8.5544282,7.7933592 8.6343412,7.3976029 8.7142542,7.0018466 8.7979707,6.9942363 8.8436349,7.2263675 c 0.045664,0.2321312 0.053274,0.7039854 0.079912,0.9323064 0.026638,0.2283209 0.072302,0.2130997 0.095133,0.049467 0.022832,-0.1636331 0.022832,-0.4756658 0.04947,-0.6316852 0.026638,-0.1560193 0.079912,-0.1560193 0.1255763,0.087528 0.045665,0.2435474 0.083717,0.7306226 0.1598255,0.9741651 0.076108,0.2435424 0.1902664,0.2435424 0.2854011,0.2397371 0.095135,-0.00381 0.1712399,-0.011415 0.232126,-0.091329 0.060886,-0.079914 0.1065495,-0.2321246 0.1560218,-0.3044261 0.04947,-0.072302 0.102741,-0.064692 0.159822,0.053276 0.05708,0.1179684 0.117965,0.3462845 0.182658,0.4528337 0.06469,0.1065493 0.133186,0.091329 0.186459,0.083718 0.05327,-0.00761 0.09133,-0.00761 0.121775,-0.060886 0.03044,-0.053276 0.05327,-0.1598227 0.08752,-0.2092935 0.03425,-0.049471 0.07992,-0.041859 0.11797,0.022832 0.03805,0.064692 0.0685,0.1864618 0.136994,0.2701796 0.0685,0.083718 0.175046,0.1293813 0.247347,0.1750447 0.0723,0.045663 0.110357,0.091331 0.258767,0.1103568 0.148411,0.019026 0.40717,0.011416 0.665933,0.00381"
       id="path5"
       inkscape:path-effect="#path-effect7"
       inkscape:original-d="M 0.79912365,9.5209875 C 1.2557657,9.5133781 1.7124078,9.505766 2.1690499,9.4981566 2.4887057,8.9882294 2.8083488,8.4783225 3.1279983,7.9684056 c 0.3805425,-0.015221 0.76107,-0.030443 1.1416051,-0.045664 0.114163,0.2054932 0.2283211,0.4109779 0.3424817,0.6164668 0.098941,-0.076108 0.1978782,-0.152214 0.2968173,-0.2283209 0.060887,0 0.1217713,0 0.1826569,0 0.098941,0.3272666 0.1978782,0.6545202 0.2968173,0.9817804 0.9133025,0.022833 1.8265682,0.045664 2.7398524,0.068496 0.09133,0 0.182657,0 0.2739853,0 0.076109,-0.7839181 0.152214,-1.5678047 0.2283209,-2.3517069 0.083719,-0.00761 0.1674355,-0.015221 0.2511533,-0.022831 0.00761,0.4718727 0.015222,0.9437269 0.022831,1.4155904 0.045665,-0.015222 0.091329,-0.030443 0.1369928,-0.045664 0,-0.312045 0,-0.6240777 0,-0.9361164 0.053276,0 0.1065498,0 0.1598247,0 0.038054,0.4870947 0.076107,0.9741699 0.1141603,1.4612548 0.114163,0 0.2283212,0 0.3424817,0 0.076109,-0.00761 0.152214,-0.015222 0.2283212,-0.022831 0.045665,-0.1522169 0.091328,-0.304428 0.1369928,-0.456642 0.05328,0.00761 0.106549,0.015222 0.159824,0.022831 0.06089,0.2283256 0.121772,0.4566423 0.182657,0.6849631 0.0685,-0.015221 0.136993,-0.030443 0.205489,-0.045664 0.03805,0 0.07611,0 0.114161,0 0.02283,-0.106552 0.04566,-0.2130997 0.0685,-0.3196495 0.04566,0.00761 0.09133,0.015221 0.136993,0.022831 0.03044,0.1217737 0.06089,0.2435423 0.09133,0.3653136 0.106552,0.045665 0.2131,0.091328 0.319649,0.1369926 0.03805,0.045665 0.07611,0.091329 0.114161,0.1369927 0.258769,-0.00761 0.517528,-0.015221 0.776291,-0.022831"
       transform="matrix(0.88228861,0,0,1.0024214,1.0390567,-3.0647234)" />
    <path
       style="fill:none;stroke:#494949;stroke-width:0.1;stroke-linecap:round;stroke-linejoin:round;stroke-opacity:1"
       d="M 0.79912365,9.5209875 C 1.2557657,9.5133772 1.7124078,9.5057669 2.1005568,9.2469982 2.4887057,8.9882294 2.8083489,8.4783225 3.1584448,8.2157533 3.5085408,7.953184 3.8890683,7.9379629 4.1364173,8.0330989 4.3837664,8.1282348 4.4979245,8.3337195 4.6044752,8.3984098 4.7110259,8.4631001 4.8099633,8.3869944 4.8898764,8.348941 4.9697894,8.3108875 5.0306737,8.3108875 5.110587,8.4745208 5.1905004,8.6381541 5.2894375,8.9654077 5.7955583,9.140454 6.3016791,9.3155004 7.2149448,9.3383319 7.7172519,9.3497479 8.219559,9.3611639 8.310886,9.3611639 8.3946044,8.9692048 8.4783228,8.5772458 8.5544282,7.7933592 8.6343412,7.3976029 8.7142542,7.0018466 8.7979707,6.9942363 8.8436349,7.2263675 c 0.045664,0.2321312 0.053274,0.7039854 0.079912,0.9323064 0.026638,0.2283209 0.072302,0.2130997 0.095133,0.049467 0.022832,-0.1636331 0.022832,-0.4756658 0.04947,-0.6316852 0.026638,-0.1560193 0.079912,-0.1560193 0.1255763,0.087528 0.045665,0.2435474 0.083717,0.7306226 0.1598255,0.9741651 0.076108,0.2435424 0.1902664,0.2435424 0.2854011,0.2397371 0.095135,-0.00381 0.1712399,-0.011415 0.232126,-0.091329 0.060886,-0.079914 0.1065495,-0.2321246 0.1560218,-0.3044261 0.04947,-0.072302 0.102741,-0.064692 0.159822,0.053276 0.05708,0.1179684 0.117965,0.3462845 0.182658,0.4528337 0.06469,0.1065493 0.133186,0.091329 0.186459,0.083718 0.05327,-0.00761 0.09133,-0.00761 0.121775,-0.060886 0.03044,-0.053276 0.05327,-0.1598227 0.08752,-0.2092935 0.03425,-0.049471 0.07992,-0.041859 0.11797,0.022832 0.03805,0.064692 0.0685,0.1864618 0.136994,0.2701796 0.0685,0.083718 0.175046,0.1293813 0.247347,0.1750447 0.0723,0.045663 0.110357,0.091331 0.258767,0.1103568 0.148411,0.019026 0.40717,0.011416 0.665933,0.00381"
       id="path7"
       inkscape:path-effect="#path-effect9"
       inkscape:original-d="M 0.79912365,9.5209875 C 1.2557657,9.5133781 1.7124078,9.505766 2.1690499,9.4981566 2.4887057,8.9882294 2.8083488,8.4783225 3.1279983,7.9684056 c 0.3805425,-0.015221 0.76107,-0.030443 1.1416051,-0.045664 0.114163,0.2054932 0.2283211,0.4109779 0.3424817,0.6164668 0.098941,-0.076108 0.1978782,-0.152214 0.2968173,-0.2283209 0.060887,0 0.1217713,0 0.1826569,0 0.098941,0.3272666 0.1978782,0.6545202 0.2968173,0.9817804 0.9133025,0.022833 1.8265682,0.045664 2.7398524,0.068496 0.09133,0 0.182657,0 0.2739853,0 0.076109,-0.7839181 0.152214,-1.5678047 0.2283209,-2.3517069 0.083719,-0.00761 0.1674355,-0.015221 0.2511533,-0.022831 0.00761,0.4718727 0.015222,0.9437269 0.022831,1.4155904 0.045665,-0.015222 0.091329,-0.030443 0.1369928,-0.045664 0,-0.312045 0,-0.6240777 0,-0.9361164 0.053276,0 0.1065498,0 0.1598247,0 0.038054,0.4870947 0.076107,0.9741699 0.1141603,1.4612548 0.114163,0 0.2283212,0 0.3424817,0 0.076109,-0.00761 0.152214,-0.015222 0.2283212,-0.022831 0.045665,-0.1522169 0.091328,-0.304428 0.1369928,-0.456642 0.05328,0.00761 0.106549,0.015222 0.159824,0.022831 0.06089,0.2283256 0.121772,0.4566423 0.182657,0.6849631 0.0685,-0.015221 0.136993,-0.030443 0.205489,-0.045664 0.03805,0 0.07611,0 0.114161,0 0.02283,-0.106552 0.04566,-0.2130997 0.0685,-0.3196495 0.04566,0.00761 0.09133,0.015221 0.136993,0.022831 0.03044,0.1217737 0.06089,0.2435423 0.09133,0.3653136 0.106552,0.045665 0.2131,0.091328 0.319649,0.1369926 0.03805,0.045665 0.07611,0.091329 0.114161,0.1369927 0.258769,-0.00761 0.517528,-0.015221 0.776291,-0.022831"
       transform="matrix(0.88228861,0,0,1.0024214,1.2390567,-3.5647234)" />
  </g>
</svg>
