<svg width="170px" height="60px" viewBox="0 0 1301 399" version="1.1" xmlns="http://www.w3.org/2000/svg" xmlns:xlink="http://www.w3.org/1999/xlink">
<title>logo</title>
<desc>Stay22 logo</desc>
<g id="logo" stroke="none" stroke-width="1" fill="none" fill-rule="evenodd">
<path d="M1278.25581,245.812809 C1175.22114,243.517358 1119.68698,243.517358 1111.65331,245.812809 C1099.60281,249.255984 1063.01093,306.172485 1054.09806,305.999607 C1045.18519,305.826729 1011.39857,249.322418 998.503625,245.812809 C989.906993,243.473069 935.320513,243.473069 834.744186,245.812809 C822.182919,245.812809 812,235.606734 812,223.016903 L812,22.7959055 C812,10.2060745 822.182919,0 834.744186,0 L1278.25581,0 C1290.81708,0 1301,10.2060745 1301,22.7959055 L1301,223.026021 C1300.99498,235.612291 1290.81353,245.81281 1278.25581,245.812809 Z M1030.40332,73.357224 C1041.57527,73.357224 1050.66384,80.9072279 1050.66384,90.1851615 C1050.66384,98.0132754 1044.60479,107.747127 1032.65954,119.108606 L982.713312,166.52409 L982.713312,187.441613 L1080.9682,187.441613 L1080.9682,160.542444 L1025.92727,160.542444 L1049.88144,137.783012 C1069.70982,119.546288 1079.76275,103.169709 1079.76275,89.1547866 C1079.759,77.4490336 1074.49412,66.367801 1065.42937,58.9866852 C1055.70373,50.6131144 1043.22035,46.1608763 1030.40332,46.4945289 C1008.17248,46.2813303 988.024686,59.5761314 979.4336,80.127608 L1005.42566,92.6380009 C1010.49761,80.205114 1019.36784,73.357224 1030.42607,73.357224 L1030.40332,73.357224 Z M915.977321,73.357224 C927.149265,73.357224 936.242391,80.9072279 936.242391,90.1851615 C936.242391,98.0041571 930.18334,107.738009 918.238093,119.108606 L868.29186,166.52409 L868.29186,187.441613 L966.546744,187.441613 L966.546744,160.542444 L911.505814,160.542444 L935.459991,137.783012 C955.288372,119.546288 965.341302,103.169709 965.341302,89.1547866 C965.33755,77.4490336 960.072665,66.367801 951.007916,58.9866852 C941.282052,50.6134977 928.798827,46.161314 915.98187,46.4945289 C893.758544,46.2881398 873.620845,59.582213 865.034893,80.127608 L891.026949,92.6380009 C896.094353,80.205114 904.964586,73.357224 916.000065,73.357224 L915.977321,73.357224 Z M584.779577,399 L584.743239,399 C581.371446,398.833843 578.210392,397.302199 575.98108,394.754419 C573.709913,391.86925 572.760566,380.415311 572.524365,376.950369 C572.138266,371.358071 571.793049,361.511062 573.855268,358.361114 C576.988996,355.041543 581.46939,353.357589 586.001465,353.795973 C586.651018,353.795973 587.114336,353.795973 587.300572,353.827929 C607.968184,353.827929 619.660148,343.82114 630.425476,317.010067 L641.894865,288.222287 C635.780885,272.814936 567.468749,100.59499 566.128761,96.029849 C565.835955,95.0144778 566.049121,93.9194931 566.701094,93.0898982 C569.47646,89.3556128 582.204075,87.6756409 590.353019,87.6756409 C597.766106,87.6756409 607.059718,88.8717078 609.217326,94.5644387 C612.34245,102.809083 655.054002,206.43322 665.187945,231.01194 C675.008468,206.232354 715.553327,104.101018 720.772467,94.3042257 C723.979354,88.2736744 732.773309,87 739.59135,87 C748.417102,87 759.577613,89.2825705 762.266673,92.9346834 C762.958515,93.8200542 763.177216,94.9889045 762.852634,96.0663701 C761.371834,100.791291 673.800208,323.410394 670.070953,332.873932 L670.070953,332.905888 C660.350361,356.59897 649.902997,372.417184 637.198093,382.697881 C623.571096,393.736392 606.914363,398.913262 584.825001,398.99087 L584.779577,399 Z M176.418087,132.156797 C173.183287,131.819159 175.811276,95.7101613 180.980569,95.6554092 C186.149861,95.6006571 207.442966,95.6554092 207.442966,95.6554092 C207.442966,95.6554092 207.415591,59.3684672 207.442966,57.7532808 C207.470341,56.1380944 248.961554,47.8796554 248.961554,54.5913481 C248.961554,61.3030407 248.961554,95.6554092 248.961554,95.6554092 C248.961554,95.6554092 296.32012,95.3862115 301.886349,95.6554092 C307.452577,95.924607 304.340964,132.156797 301.886349,132.156797 L248.961554,132.156797 L248.961554,232.99188 C248.693088,240.336944 251.398212,247.479855 256.464798,252.804287 C261.531385,258.12872 268.531165,261.184609 275.8802,261.280456 C281.588823,261.468223 287.303561,261.315864 292.994071,260.824189 C298.236363,260.053097 304.172152,257.087359 304.199527,262.968645 C304.226902,268.849931 304.952337,290.13024 304.199527,295.432067 C303.446718,300.733893 273.14271,300.975715 273.14271,300.975715 C255.7492,301.446567 238.86881,295.054695 226.149143,283.181289 C213.954635,271.346464 207.186188,255.002455 207.442966,238.010821 L207.442966,132.156797 C207.442966,132.156797 179.652887,132.494435 176.418087,132.156797 Z M534.13119,304.651755 C532.170677,305.604351 529.894419,306.080773 527.604901,305.988786 C518.001128,305.237359 508.553131,303.129758 499.539707,299.730023 L499.539707,275.241942 L492.339745,281.549303 C475.008234,296.732175 452.690343,304.932758 429.692005,304.569609 C416.340976,304.698137 403.21611,302.086629 391.025435,296.897572 C379.04923,291.559827 368.20311,283.818005 359.198098,274.160825 C340.336512,253.593668 330.223655,226.399714 331.046559,198.418323 L331.046568,198.162821 C330.225867,170.190783 340.333528,143.006016 359.209438,122.415835 C368.189449,112.785696 379.035568,105.043874 391.078575,99.6770303 C403.207187,94.5068323 416.336746,91.8878317 429.583032,92.0115866 C452.690343,91.6480867 475.008234,99.8486694 492.339745,115.031542 L499.539707,121.338903 L499.539707,97.1775355 C507.177596,96.0210124 514.897189,95.3662808 522.635249,95.220032 C526.307744,95.1142637 529.934798,95.496279 533.463536,96.3549457 C536.068541,97.1129256 536.663671,97.8503828 536.673542,98.7877269 C536.744696,106.167156 536.933692,158.640521 536.982964,196.867509 C537.058436,255.421366 536.886393,294.125995 536.401831,300.969213 C536.329234,302.598822 535.464771,303.958051 534.13119,304.651755 Z M391.184764,244.263668 C402.224948,256.31018 417.873566,263.0372 434.17736,262.745306 C450.358719,263.147231 465.899449,256.395019 476.682698,244.277382 C488.445271,231.931095 494.786557,215.36674 494.287759,198.290422 C494.785268,181.228997 488.454648,164.678323 476.710021,152.335462 C465.926443,140.198563 450.373256,133.433579 434.17736,133.835539 C417.879168,133.550072 402.238104,140.278359 391.20298,152.321748 C379.753464,164.824786 373.60681,181.313656 374.066962,198.290422 C373.60681,215.267189 379.753464,231.756059 391.20298,244.259097 L391.184764,244.263668 Z M157.361582,142.405063 C159.267203,150.935696 119.753983,151.386835 119.158192,149.240506 C118.099617,146.110792 116.60195,143.14793 114.710226,140.441013 C106.987684,130.803038 95.5084746,126.455696 79.1355932,126.455696 C59.579096,126.455696 45.0254237,135.113924 45.0254237,148.329114 C45.0254237,156.987342 51.8474576,163.822785 65.0367232,168.835443 L110.971751,184.78481 C144.172316,196.632911 161,216.227848 161,243.56962 C161,284.126582 127.799435,306 82.319209,306 C35.4745763,306 5.45762712,283.670886 0,248.582278 C0,248.582278 37.4484181,237.527089 39.1129944,242.658228 C40.0603365,246.576981 41.7108156,250.290524 43.9839266,253.617722 C52.3022599,263.875443 65.8735593,269.544304 83.2288136,269.544304 C105.059322,269.544304 121.887006,259.974684 121.887006,244.936709 C121.887006,234.911392 113.700565,227.164557 96.8728814,221.240506 L51.3926554,206.202532 C20.0112994,195.265823 5.45762712,178.405063 5.45762712,151.518987 C5.45762712,110.962025 37.2937853,90 82.319209,90 C118.68065,90 144.736271,105.142785 153.723164,129.021266 C155.399416,133.34288 156.618886,137.828661 157.361582,142.405063 Z" id="Stay22-logo" fill="#293BFF" fill-rule="nonzero"></path>
</g>
</svg>
